<?xml version="1.0" encoding="UTF-8" standalone="no"?>
<!-- Created with Inkscape (http://www.inkscape.org/) -->

<svg
   width="94.250412mm"
   height="118.79374mm"
   viewBox="0 0 94.250412 118.79374"
   version="1.1"
   id="svg5"
   xml:space="preserve"
   sodipodi:docname="drawing.svg"
   inkscape:version="1.2.2 (732a01da63, 2022-12-09)"
   xmlns:inkscape="http://www.inkscape.org/namespaces/inkscape"
   xmlns:sodipodi="http://sodipodi.sourceforge.net/DTD/sodipodi-0.dtd"
   xmlns="http://www.w3.org/2000/svg"
   xmlns:svg="http://www.w3.org/2000/svg"><sodipodi:namedview
     id="namedview7"
     pagecolor="#ffffff"
     bordercolor="#000000"
     borderopacity="0.25"
     inkscape:showpageshadow="2"
     inkscape:pageopacity="0.0"
     inkscape:pagecheckerboard="0"
     inkscape:deskcolor="#d1d1d1"
     inkscape:document-units="mm"
     showgrid="false"
     inkscape:zoom="0.69014043"
     inkscape:cx="604.94934"
     inkscape:cy="357.17368"
     inkscape:window-width="1920"
     inkscape:window-height="1051"
     inkscape:window-x="-9"
     inkscape:window-y="-9"
     inkscape:window-maximized="1"
     inkscape:current-layer="layer2" /><defs
     id="defs2"><inkscape:path-effect
       effect="skeletal"
       id="path-effect11180"
       is_visible="true"
       lpeversion="1"
       pattern="m 147.68464,54.53569 a 0.66843683,0.60766983 0 0 1 -0.66844,0.60767 0.66843683,0.60766983 0 0 1 -0.66843,-0.60767 0.66843683,0.60766983 0 0 1 0.66843,-0.60767 0.66843683,0.60766983 0 0 1 0.66844,0.60767 z"
       copytype="repeated"
       prop_scale="1"
       scale_y_rel="false"
       spacing="5"
       normal_offset="0"
       tang_offset="0"
       prop_units="false"
       vertical_pattern="false"
       hide_knot="false"
       fuse_tolerance="0" /><inkscape:path-effect
       effect="skeletal"
       id="path-effect11024"
       is_visible="true"
       lpeversion="1"
       pattern="m 147.68464,54.53569 a 0.66843683,0.60766983 0 0 1 -0.66844,0.60767 0.66843683,0.60766983 0 0 1 -0.66843,-0.60767 0.66843683,0.60766983 0 0 1 0.66843,-0.60767 0.66843683,0.60766983 0 0 1 0.66844,0.60767 z"
       copytype="repeated"
       prop_scale="1"
       scale_y_rel="false"
       spacing="8"
       normal_offset="0"
       tang_offset="0"
       prop_units="false"
       vertical_pattern="false"
       hide_knot="false"
       fuse_tolerance="0" /></defs><g
     inkscape:groupmode="layer"
     id="layer2"
     inkscape:label="Layer 2"
     style="display:inline"
     transform="translate(-156.29692,-17.276974)"><path
       id="path477"
       style="display:inline;fill:#d1a739;fill-opacity:1;stroke:#ff009b;stroke-width:0.264583;stroke-opacity:0.49"
       d="m 250.41469,17.40979 -66.46261,0.262516 -0.0491,-0.04237 c 1.68862,3.931865 3.90084,6.340711 -8.40776,31.712793 -20.1859,43.411057 10.91684,70.134171 36.10271,73.470961 1.10059,0.16558 1.638,2.1319 -0.51418,3.03238 -7.03194,1.21538 -10.58805,-2.86835 -16.39849,-4.60489 -1.44164,-0.64691 -1.74747,0.94062 -0.60823,2.16627 9.13422,8.8038 53.43187,12.41068 56.03999,12.22458 z m -66.4683,83.97524 c 0.23066,8.8e-4 0.60882,0.14922 1.21078,0.52141 2.67612,2.25845 4.18602,4.09264 8.44652,6.92723 3.42299,2.69911 6.06776,1.59428 8.81134,3.46387 2.90137,2.51501 0.48631,3.09861 -2.61327,2.7342 -2.14426,-0.72626 -6.02804,-2.87603 -9.35809,-5.04362 -1.41833,-1.2125 -1.81462,-0.82565 -6.74481,-7.53494 -0.0964,-0.53506 -0.19278,-1.06983 0.24753,-1.06815 z m 27.89804,12.53618 c 0.0564,-3.2e-4 0.11288,1.7e-4 0.1695,0.001 1.51278,0.0232 3.07934,0.46494 4.02766,0.96945 1.63103,0.86769 1.31071,1.98904 1.01803,2.1456 -1.06799,1.75145 -5.6947,0.84759 -7.46053,-0.60513 -0.71233,-0.58603 -0.50693,-1.51854 -0.10077,-2.0252 -0.001,6.8e-4 -0.003,10e-4 -0.004,0.002 l 0.032,-0.0398 c -0.009,0.0127 -0.0183,0.0257 -0.0279,0.0377 0.67795,-0.3397 1.49958,-0.48091 2.34611,-0.48576 z m 10.30377,2.69648 c 0.97997,-1.2e-4 1.77449,0.65372 1.77457,1.46037 -7e-5,0.80665 -0.7946,1.4605 -1.77457,1.46038 -0.97977,-1.2e-4 -1.77398,-0.6539 -1.77405,-1.46038 8e-5,-0.80648 0.79429,-1.46025 1.77405,-1.46037 z"
       sodipodi:nodetypes="ccccccccccsccccccsscscsccccsscscs"
       inkscape:label="path477" /><path
       id="path6571"
       style="display:inline;fill:#999999;fill-opacity:0.733333;stroke:none;stroke-width:0.264583;stroke-opacity:0.49"
       d="m 228.33357,83.612295 c -0.33372,-0.01438 -0.59184,-0.321021 -0.58474,-0.679204 0.007,-0.358137 0.27767,-0.654588 0.61351,-0.654588 0.33585,0 0.6079,0.302243 0.59908,0.680785 -0.009,0.378505 -0.29413,0.667385 -0.62785,0.653007 z m -1.71265,9.051496 c -0.31414,-0.106189 -0.47429,-0.469845 -0.36683,-0.808933 0.10745,-0.339048 0.44775,-0.544061 0.76562,-0.450097 0.31789,0.09397 0.49183,0.456341 0.379,0.812685 -0.11282,0.356312 -0.46366,0.552529 -0.77779,0.446345 z m -4.05484,8.287209 c -0.27909,-0.18278 -0.34299,-0.57751 -0.15168,-0.88076 0.19131,-0.303237 0.57492,-0.415534 0.85985,-0.242854 0.28494,0.172684 0.36151,0.569314 0.16167,0.886684 -0.19984,0.31736 -0.59076,0.41971 -0.86984,0.23693 z m -5.97342,7.09931 c -0.22872,-0.24408 -0.19779,-0.64409 0.0607,-0.8947 0.25852,-0.2506 0.6593,-0.26908 0.89617,-0.0328 0.23687,0.23624 0.21711,0.64108 -0.0529,0.90279 -0.27001,0.26172 -0.67526,0.26883 -0.90399,0.0247 z m -7.46838,5.4878 c -0.16316,-0.29014 -0.0386,-0.66955 0.27037,-0.85073 0.30894,-0.1812 0.70104,-0.10469 0.87459,0.17991 0.17355,0.28459 0.0587,0.67168 -0.26471,0.861 -0.32347,0.18934 -0.71708,0.1 -0.88025,-0.19018 z m -8.53972,3.45267 c -0.0825,-0.32109 0.13472,-0.65372 0.47724,-0.74887 0.34256,-0.0952 0.70018,0.0778 0.79512,0.39543 0.0949,0.3176 -0.11356,0.66124 -0.47376,0.76132 -0.36024,0.10009 -0.71616,-0.0868 -0.7986,-0.40788 z m -9.1826,0.99427 c 0.0133,-0.33386 0.31912,-0.59309 0.67742,-0.58721 0.22286,0.004 0.43059,0.11014 0.55197,0.28486 0.0677,0.0977 0.10447,0.21089 0.10487,0.32661 3.9e-4,0.11576 -0.0356,0.22924 -0.10487,0.32697 -0.12421,0.17503 -0.34119,0.27924 -0.57407,0.2746 -0.37866,-0.008 -0.66858,-0.29199 -0.65532,-0.62583 z m -9.05767,-1.68394 c 0.10524,-0.31445 0.4684,-0.47569 0.8078,-0.36927 0.33935,0.10642 0.5454,0.44609 0.45241,0.76424 -0.093,0.31817 -0.45484,0.49322 -0.81153,0.38146 -0.35665,-0.11175 -0.55392,-0.46199 -0.44868,-0.77643 z m -8.29815,-4.03088 c 0.18201,-0.27957 0.57653,-0.34455 0.88028,-0.15408 0.30373,0.19045 0.41707,0.57372 0.24519,0.85911 -0.17188,0.28539 -0.56827,0.36306 -0.88617,0.16409 -0.31789,-0.19895 -0.4213,-0.58956 -0.2393,-0.86912 z m -7.11501,-5.95422 c 0.24348,-0.22937 0.64358,-0.1995 0.89487,0.0583 0.25128,0.25785 0.27083,0.65859 0.0352,0.89608 -0.23561,0.23749 -0.64051,0.21881 -0.90294,-0.0505 -0.26243,-0.26932 -0.27063,-0.67455 -0.0272,-0.90393 z m -5.50825,-7.453936 c 0.28971,-0.163984 0.66949,-0.04043 0.85155,0.268023 0.18207,0.308472 0.10663,0.700809 -0.17751,0.875153 -0.28413,0.17435 -0.67156,0.0606 -0.86179,-0.26234 -0.19025,-0.322963 -0.10197,-0.716847 0.18775,-0.880836 z m -3.47789,-8.530046 c 0.32083,-0.08343 0.65413,0.132696 0.75034,0.474938 0.0962,0.342276 -0.0757,0.700427 -0.393,0.796336 -0.31731,0.09591 -0.66158,-0.11155 -0.76275,-0.471429 -0.10119,-0.35992 0.0846,-0.716406 0.40541,-0.799845 z m -1.02416,-9.178462 c 0.33398,0.01214 0.59433,0.317204 0.58967,0.675625 -0.002,0.166742 -0.062,0.327109 -0.1681,0.449312 -0.11485,0.131785 -0.27421,0.208562 -0.44133,0.209697 -0.16723,0.0011 -0.32761,-0.07374 -0.44275,-0.209697 -0.10628,-0.125923 -0.16419,-0.293506 -0.1613,-0.467318 0.006,-0.378809 0.28984,-0.669761 0.62381,-0.657619 z m 1.65517,-9.063801 c 0.31475,0.104293 0.47708,0.466954 0.37169,0.806654 -0.10537,0.33966 -0.4444,0.546743 -0.76284,0.454722 -0.31845,-0.09202 -0.49459,-0.45333 -0.38391,-0.810357 0.11067,-0.356996 0.46032,-0.555307 0.77506,-0.451019 z m 4.00687,-8.309032 c 0.28004,0.181231 0.34609,0.575541 0.15648,0.879785 -0.18961,0.304223 -0.57253,0.418615 -0.85837,0.247537 -0.28584,-0.171083 -0.3646,-0.56723 -0.16652,-0.885661 0.19807,-0.318416 0.58837,-0.422887 0.86841,-0.241661 z m 5.93496,-7.13065 c 0.23002,0.242873 0.20121,0.643049 -0.056,0.895019 -0.25719,0.251967 -0.65787,0.272574 -0.89599,0.0376 -0.23811,-0.234979 -0.22051,-0.63992 0.0481,-0.903068 0.26862,-0.26315 0.67384,-0.272421 0.90386,-0.02955 z m 7.43944,-5.528657 c 0.16481,0.289274 0.0423,0.669425 -0.26568,0.852357 -0.308,0.182939 -0.70057,0.108572 -0.87571,-0.175104 -0.17514,-0.283668 -0.0624,-0.671442 0.25998,-0.862579 0.32245,-0.191148 0.71661,-0.103957 0.88141,0.185326 z m 8.52031,-3.503051 c 0.0844,0.320567 -0.13067,0.654536 -0.47263,0.751798 -0.34198,0.09727 -0.70066,-0.07352 -0.79754,-0.390559 -0.0969,-0.317026 0.10954,-0.661921 0.4691,-0.764193 0.35959,-0.102281 0.71665,0.08237 0.80107,0.402954 z m 9.17421,-1.054016 c -0.011,0.33411 -0.31529,0.595571 -0.67382,0.592138 -0.12242,-0.0012 -0.24231,-0.03342 -0.34662,-0.0934 0,0 0,0 0,0 -0.19197,-0.111036 -0.31236,-0.30466 -0.3145,-0.51398 -0.002,-0.209525 0.11506,-0.405619 0.3145,-0.517184 0,0 0,0 0,0 0.10795,-0.06003 0.23306,-0.09104 0.36052,-0.08935 0.37896,0.005 0.67094,0.28768 0.65992,0.621782 z m 9.06988,1.626341 c -0.10335,0.315055 -0.4655,0.478479 -0.80551,0.374132 -0.33996,-0.104336 -0.54808,-0.442725 -0.45703,-0.761443 0.0911,-0.318731 0.45181,-0.495972 0.80918,-0.386368 0.35734,0.109596 0.55669,0.458637 0.45336,0.773679 z m 8.31986,3.982805 c -0.18045,0.280524 -0.57455,0.347645 -0.87929,0.158884 -0.30471,-0.18875 -0.42015,-0.571326 -0.24988,-0.857613 0.17028,-0.286293 0.56618,-0.366137 0.88514,-0.16895 0.31894,0.19718 0.42448,0.587163 0.24403,0.867679 z m 7.14624,5.915657 c -0.24227,0.23067 -0.64252,0.202913 -0.89517,-0.05361 -0.25265,-0.256521 -0.27431,-0.657151 -0.04,-0.895886 0.23435,-0.238735 0.63933,-0.222207 0.9032,0.04571 0.26386,0.267922 0.27421,0.673113 0.0319,0.903784 z m 5.54901,7.424895 c -0.28884,0.16562 -0.66936,0.04416 -0.85316,-0.263343 -0.18381,-0.307519 -0.11052,-0.700328 0.1727,-0.876262 0.2832,-0.175929 0.67131,-0.0643 0.86335,0.257614 0.19205,0.321941 0.10595,0.716366 -0.18289,0.881991 z m 3.52815,8.510521 c -0.32029,0.08541 -0.65493,-0.128653 -0.75325,-0.47032 -0.0983,-0.3417 0.0714,-0.700903 0.38813,-0.798742 0.31674,-0.09784 0.66225,0.107529 0.76562,0.466761 0.10337,0.359274 -0.0802,0.716885 -0.4005,0.802301 z"
       inkscape:path-effect="#path-effect11024"
       inkscape:original-d="M 228.36234,82.278503 A 35.730991,35.730991 0 0 1 192.63135,118.00949 35.730991,35.730991 0 0 1 156.90036,82.278503 35.730991,35.730991 0 0 1 192.63135,46.547512 35.730991,35.730991 0 0 1 228.36234,82.278503 Z"
       class="UnoptimicedTransforms"
       inkscape:export-filename="path6571.svg"
       inkscape:export-xdpi="96"
       inkscape:export-ydpi="96" /><path
       style="display:inline;fill:#999999;fill-opacity:0.734513;stroke:none;stroke-width:0.305227;stroke-opacity:0.49"
       id="path11120"
       inkscape:path-effect="#path-effect11180"
       sodipodi:type="arc"
       sodipodi:cx="192.26675"
       sodipodi:cy="83.615387"
       sodipodi:rx="30.383495"
       sodipodi:ry="28.803555"
       d="m 222.61588,84.950715 c -0.33458,-0.01719 -0.59025,-0.326218 -0.58127,-0.682879 0.009,-0.356599 0.28001,-0.652449 0.61564,-0.652449 0.33565,0 0.60844,0.302767 0.5984,0.683748 -0.0101,0.380929 -0.2982,0.668767 -0.63277,0.65158 z m -1.06006,6.220056 c -0.32165,-0.09371 -0.49898,-0.453326 -0.40716,-0.798558 0.0918,-0.345195 0.42426,-0.569181 0.74981,-0.490946 0.32556,0.07824 0.52004,0.435422 0.42256,0.802503 -0.0975,0.367051 -0.44357,0.580707 -0.76521,0.487001 z m -2.42729,5.835463 c -0.29395,-0.161993 -0.38866,-0.552495 -0.22294,-0.870181 0.16573,-0.317677 0.54013,-0.463431 0.8411,-0.315179 0.30097,0.148253 0.41234,0.540124 0.23661,0.877203 -0.17574,0.337077 -0.56083,0.470148 -0.85477,0.308157 z m -3.6392,5.174436 c -0.2516,-0.22204 -0.25917,-0.62373 -0.0286,-0.89775 0.23061,-0.27404 0.62772,-0.33521 0.88949,-0.12515 0.26176,0.21006 0.28544,0.61686 0.0405,0.90785 -0.24494,0.29101 -0.64982,0.33709 -0.90143,0.11505 z m -4.68097,4.24623 c -0.19695,-0.27099 -0.11694,-0.66411 0.16787,-0.88103 0.28478,-0.21688 0.68503,-0.18951 0.89396,0.0725 0.20895,0.26197 0.14287,0.66324 -0.15887,0.89295 -0.30171,0.22969 -0.70603,0.1866 -0.90296,-0.0844 z m -5.46668,3.16757 c -0.13791,-0.30578 0.0207,-0.67489 0.34474,-0.82927 0.324,-0.15438 0.71053,-0.0451 0.86118,0.25439 0.15065,0.2995 0.004,0.67884 -0.33853,0.84199 -0.34209,0.16314 -0.72949,0.0387 -0.86739,-0.26711 z m -5.99788,2.01731 c -0.0751,-0.32724 0.15326,-0.65837 0.50192,-0.74608 0.34865,-0.0877 0.70653,0.0959 0.79521,0.41972 0.0887,0.3238 -0.13067,0.66701 -0.49849,0.75957 -0.36783,0.0926 -0.72351,-0.10596 -0.79864,-0.43321 z m -6.27839,0.79686 c -0.009,-0.33544 0.28069,-0.61449 0.63936,-0.63145 0.35869,-0.017 0.6731,0.23356 0.69608,0.5684 0.023,0.33484 -0.25979,0.62786 -0.63873,0.64573 -0.37898,0.0179 -0.68807,-0.24722 -0.69671,-0.58268 z m -6.30958,-0.47817 c 0.0587,-0.33057 0.39831,-0.54609 0.75343,-0.49063 0.35511,0.0555 0.61281,0.36423 0.56801,0.69691 -0.0448,0.33269 -0.38076,0.56298 -0.75556,0.50449 -0.37478,-0.0585 -0.6246,-0.38019 -0.56588,-0.71077 z m -6.09223,-1.71627 c 0.12242,-0.3124 0.49754,-0.45703 0.83477,-0.33301 0.33723,0.12403 0.52926,0.47729 0.41996,0.79466 -0.1093,0.31736 -0.48385,0.47705 -0.83966,0.34609 -0.35583,-0.13096 -0.53748,-0.49533 -0.41507,-0.80774 z m -5.62421,-2.88422 c 0.1824,-0.28098 0.57816,-0.34723 0.88291,-0.15876 0.30477,0.18848 0.42229,0.57221 0.25222,0.86096 -0.17007,0.28874 -0.56838,0.37043 -0.89061,0.17107 -0.32226,-0.19939 -0.42693,-0.59228 -0.24452,-0.87327 z m -4.90496,-3.98198 c 0.23864,-0.23589 0.6398,-0.21606 0.89737,0.0323 0.0574,0.0554 0.10518,0.11977 0.14112,0.19028 0,0 0,0 0,0 0.1217,0.23892 0.094,0.52015 -0.0764,0.70533 -0.17059,0.1854 -0.45009,0.23535 -0.70466,0.1186 0,0 0,0 0,0 -0.0746,-0.0343 -0.14372,-0.0816 -0.2037,-0.13942 -0.27392,-0.26417 -0.29234,-0.67124 -0.0537,-0.90712 z m -3.92019,-4.964167 c 0.28464,-0.1779 0.67195,-0.07051 0.86884,0.228965 0.19689,0.299466 0.14195,0.697601 -0.1342,0.888415 -0.27615,0.190816 -0.67279,0.09724 -0.8817,-0.220502 -0.2089,-0.31774 -0.13758,-0.718981 0.14706,-0.896878 z m -2.74744,-5.694886 c 0.31598,-0.111676 0.67027,0.07688 0.79742,0.411339 0.12715,0.334481 -0.0125,0.710837 -0.32312,0.837191 -0.31064,0.12635 -0.67716,-0.05079 -0.81201,-0.405951 -0.13486,-0.355189 0.0217,-0.730899 0.33771,-0.842579 z m -1.41937,-6.149164 c 0.33276,-0.03726 0.63468,0.226127 0.68311,0.579447 0.0484,0.353365 -0.17148,0.688271 -0.50191,0.741912 -0.33042,0.05364 -0.64775,-0.200631 -0.69943,-0.577134 -0.0517,-0.376555 0.18546,-0.706969 0.51823,-0.744225 z m 0.056,-6.312637 c 0.332,0.04303 0.56258,0.370727 0.52563,0.725428 -0.0369,0.354647 -0.33016,0.627781 -0.66409,0.60137 -0.33395,-0.02641 -0.58175,-0.349076 -0.54219,-0.7273 0.0395,-0.378177 0.34867,-0.642528 0.68065,-0.599498 z m 1.52281,-6.125055 c 0.31424,0.116876 0.46512,0.48872 0.34823,0.826745 -0.11689,0.337997 -0.46515,0.537176 -0.78429,0.435217 -0.31914,-0.101963 -0.48705,-0.472626 -0.36305,-0.831693 0.12398,-0.359047 0.48489,-0.547142 0.79911,-0.430269 z m 2.83942,-5.65035 c 0.28174,0.182468 0.34855,0.578788 0.16069,0.884007 -0.18787,0.30522 -0.57178,0.424105 -0.86159,0.2548 -0.2898,-0.169305 -0.37307,-0.568208 -0.17379,-0.892032 0.19928,-0.323831 0.59294,-0.429243 0.87469,-0.246775 z m 4.00068,-4.899205 c 0.23465,0.239837 0.2128,0.6409 -0.037,0.897214 -0.24978,0.256335 -0.65017,0.288546 -0.89598,0.06012 -0.2458,-0.22842 -0.23995,-0.63584 0.0256,-0.908316 0.26556,-0.272502 0.67272,-0.288862 0.90737,-0.04902 z m 4.96708,-3.903284 c 0.17812,0.283793 0.0715,0.670619 -0.22769,0.867608 -0.29916,0.196967 -0.69659,0.142059 -0.88692,-0.133586 -0.19035,-0.275657 -0.0969,-0.671336 0.2196,-0.879793 0.31648,-0.208439 0.7169,-0.138011 0.89501,0.145771 z m 5.66738,-2.800324 c 0.11785,0.314239 -0.0645,0.672505 -0.39815,0.80561 -0.33364,0.133097 -0.71246,-0.0012 -0.84331,-0.310116 -0.13086,-0.308877 0.0407,-0.677991 0.39284,-0.818578 0.35208,-0.140581 0.73077,0.0088 0.84862,0.323084 z m 6.11686,-1.627182 c 0.0539,0.331373 -0.19537,0.647076 -0.54889,0.71217 -0.35353,0.06509 -0.69887,-0.141146 -0.76654,-0.470013 -0.0677,-0.328863 0.17332,-0.657251 0.54637,-0.725919 0.37306,-0.06867 0.71519,0.152386 0.76906,0.483762 z m 6.31573,-0.384034 c -0.0137,0.335321 -0.32098,0.59444 -0.67991,0.587486 -0.24791,-0.0048 -0.47489,-0.136485 -0.58676,-0.342818 -0.0456,-0.08404 -0.0697,-0.176596 -0.0699,-0.270469 -2.1e-4,-0.09389 0.0235,-0.186544 0.0699,-0.270626 0.11406,-0.206722 0.35079,-0.336244 0.61024,-0.331245 0.37934,0.0073 0.67011,0.292361 0.65643,0.627672 z m 6.26625,0.889443 c -0.0799,0.32611 -0.4327,0.519338 -0.7836,0.441079 -0.35088,-0.07826 -0.58814,-0.403078 -0.52191,-0.732227 0.0662,-0.329151 0.4164,-0.537247 0.78662,-0.454686 0.37021,0.08256 0.59878,0.419726 0.51889,0.745834 z m 5.9672,2.10471 c -0.14238,0.30361 -0.52586,0.423526 -0.85411,0.278039 -0.32825,-0.145493 -0.49697,-0.51022 -0.36744,-0.819726 0.12952,-0.309501 0.51344,-0.44457 0.85991,-0.290867 0.3465,0.153712 0.50401,0.528937 0.36164,0.832554 z m 5.41748,3.249783 c -0.20116,0.267891 -0.60043,0.306936 -0.89144,0.09837 -0.29104,-0.208591 -0.38235,-0.599244 -0.19327,-0.875783 0.18906,-0.276528 0.59193,-0.331213 0.90004,-0.110414 0.30814,0.220825 0.38584,0.61993 0.18467,0.887831 z m 4.61194,4.322119 c -0.25525,0.217896 -0.65399,0.168812 -0.89278,-0.09799 -0.23877,-0.266782 -0.2435,-0.668464 0.001,-0.898087 0.24467,-0.229631 0.65075,-0.195972 0.90448,0.08746 0.25371,0.283413 0.24239,0.690734 -0.0129,0.908623 z m 3.55496,5.232735 c -0.29646,0.157213 -0.67512,0.02267 -0.85027,-0.289982 -0.17514,-0.312652 -0.0921,-0.70585 0.1969,-0.876557 0.289,-0.170707 0.67794,-0.04919 0.86369,0.282522 0.18576,0.331714 0.0862,0.726804 -0.21032,0.884017 z m 2.33158,5.87334 c -0.32304,0.08832 -0.6624,-0.125324 -0.76486,-0.467706 -0.10247,-0.342408 0.0638,-0.707414 0.38251,-0.810971 0.31871,-0.103554 0.67128,0.09943 0.78002,0.46332 0.10875,0.363921 -0.0746,0.727036 -0.39767,0.815357 z m 0.95287,6.237506 c -0.3351,0.01121 -0.61572,-0.275175 -0.63657,-0.631165 -0.0208,-0.356041 0.22432,-0.673171 0.55801,-0.701332 0.33367,-0.02816 0.63088,0.249878 0.65346,0.629854 0.0226,0.380035 -0.23977,0.691428 -0.5749,0.702643 z"
       class="UnoptimicedTransforms" /><g
       id="g17594"
       style="display:inline"><path
         style="fill:#d1a739;fill-opacity:0.0869565;stroke:none;stroke-width:0.264583;stroke-opacity:0.49"
         d="m 191.89544,31.16853 c 0.78875,1.521577 1.78686,2.908655 2.64192,4.389662 0.42782,0.741008 0.82351,1.642949 1.35049,2.339105 0.57551,0.76028 1.11218,0.872641 1.797,1.436037 0.089,0.09202 0.17795,0.184044 0.26693,0.276066 0.0424,0.01135 0.0906,0.0099 0.12723,0.03409 0.0259,0.01712 0.0156,0.08252 0.0466,0.08066 0.062,-0.0037 0.0993,-0.08942 0.16132,-0.09314 0.062,-0.0037 0.0332,0.145245 0.0931,0.161316 0.0134,0.0036 0.19691,-0.320765 0.2295,-0.347591 0.12719,-0.104711 0.36134,-0.209661 0.53052,-0.198752 0.40931,0.02641 0.47678,0.214979 0.77584,0.41243 0.11975,0.07907 0.25181,-7.94e-4 0.33511,0.02162 0.0585,0.01566 0.27925,0.18438 0.34759,0.2295 0.0518,0.03421 0.12418,0.21509 0.0931,0.161316 -0.31126,-0.53912 -0.89391,-0.758074 -1.32218,-1.172445 -0.15777,-0.152647 -0.26173,-0.353148 -0.40664,-0.518044 -0.12962,-0.147489 -0.31111,-0.243329 -0.44073,-0.390816 -0.10048,-0.114334 -0.13236,-0.288959 -0.23284,-0.403294 -0.067,-0.0762 -0.37687,-0.398563 -0.4873,-0.471474 -0.0366,-0.02418 -0.10012,5.29e-4 -0.12723,-0.03409 -0.48807,-0.621797 -0.13626,-0.317651 -0.67356,-0.79411 -0.23151,-0.205292 -0.31728,-0.650398 -0.51226,-0.887245 -0.0441,-0.05359 -0.13189,-0.0594 -0.17379,-0.11475 -0.11243,-0.148519 -0.15892,-0.341897 -0.27941,-0.483952 -0.10815,-0.127498 -0.27401,-0.193905 -0.39416,-0.310158 -0.0446,-0.04317 -0.0467,-0.120121 -0.0931,-0.161316 -0.0328,-0.02913 -0.0944,-0.005 -0.12722,-0.03409 -0.23207,-0.205782 -0.31001,-0.657111 -0.51226,-0.887246 -0.20831,-0.237032 -0.43332,-0.675627 -0.59291,-0.840676 -0.41298,-0.427112 -0.7461,-0.919747 -1.04611,-1.439381 -0.12419,-0.215091 0.0424,0.01135 -0.12723,-0.03409 -0.25446,-0.06818 -0.44073,-0.390813 -0.69518,-0.458996 -0.03,-0.008 -0.0547,0.06367 -0.0807,0.04657 -0.0518,-0.03421 -0.0413,-0.127106 -0.0931,-0.161316 -0.0518,-0.03421 -0.10134,0.109206 -0.16132,0.09314 -0.03,-0.008 -0.0166,-0.07262 -0.0466,-0.08066 -0.0424,-0.01138 -0.24614,0.07041 -0.28855,0.05905 -0.13596,-0.03643 0.0215,-0.227515 -0.17379,-0.114747"
         id="path17086" /><path
         style="fill:#cb9c2f;fill-opacity:1;stroke:#cb9c2f;stroke-width:0.264583;stroke-opacity:0.490196"
         d="m 218.0101,60.594189 c -0.0984,-0.551926 -0.44394,-0.998715 -0.76147,-1.44367 -0.86775,-1.215998 -1.89536,-2.364192 -2.47577,-3.764195 -0.21024,-0.507103 0.24297,-0.553646 0.20494,-0.842674 -0.0876,-0.66566 -0.83174,-1.74003 -1.18455,-2.351119 -0.35307,-0.611527 -0.67948,-1.26323 -1.06956,-1.852523 -0.20665,-0.312203 -0.44084,-0.608314 -0.61545,-0.94125 -0.094,-0.179242 -0.0506,-0.295304 -0.15996,-0.501615 -0.48723,-0.919565 -0.82987,-1.904699 -1.32116,-2.837241 -0.16372,-0.310761 -0.32289,-0.653362 -0.38422,-1.002324 -0.0209,-0.119269 0.20592,-0.454237 0.16608,-0.523251 -0.0902,-0.156159 -0.2805,-0.26658 -0.40253,-0.397785 -0.43719,-0.470085 -0.0576,0.02379 -0.56442,-0.16669 -0.26325,-0.09895 -0.49032,-0.694248 -0.6003,-0.877567 -0.10542,-0.175734 -0.21031,-0.351803 -0.31278,-0.529278 -0.005,-0.0084 -0.0434,-0.0899 -0.0317,-0.104831 0.0584,-0.0745 -0.24892,-0.53209 -0.30354,-0.650507 -0.0645,-0.139888 -0.11909,-0.284197 -0.17495,-0.42777 -0.20989,-0.539499 0.29145,0.07077 0.41143,0.0016 0.0466,-0.02689 -0.87979,-1.101338 -0.98994,-1.203116 -0.20687,-0.191151 -0.41128,-0.44628 -0.53321,-0.698994 -0.0139,-0.02873 -0.11581,-0.295312 -0.0434,-0.337127 0.0446,-0.02577 0.17024,0.0349 0.13609,0.07354 -0.029,0.03279 -0.0872,0.0071 -0.13087,0.01037 -0.0666,0.005 -0.3301,-0.05624 -0.35792,0.0038 -0.0158,0.03403 0.72449,0.312595 0.81691,0.26719 0.0807,-0.03965 0.0151,-0.371653 0.14046,-0.305642 0.12779,0.06728 0.97377,0.820994 0.99448,0.73691 0.0247,-0.100134 -0.0361,-0.21636 0.009,-0.309261 0.15819,-0.328181 0.46921,0.07047 0.40376,-0.43593 -0.0403,-0.312018 -0.23324,-0.872628 -0.11848,-0.779087 0.64993,0.529751 1.07773,1.807004 1.47016,2.533915 0.0545,0.100861 0.38146,0.854929 0.53147,0.895577 0.0276,0.0075 0.0741,-0.06391 0.10264,-0.05926 0.34047,0.05546 0.63146,0.757124 0.75556,1.034206 0.0552,0.123323 0.28715,0.380828 0.15212,0.375756 -0.22818,-0.0086 -0.36595,-0.522165 -0.41629,-0.484002 -0.0732,0.05551 -0.0581,0.172657 -0.0603,0.244875 -0.0162,0.530651 0.078,0.276042 0.51266,0.638429 0.34117,0.284474 0.18031,0.402788 -0.20458,-0.005 -0.40944,-0.433825 -0.58679,-1.049092 -1.31336,-0.914977 -0.12362,0.02281 -0.26255,0.1768 -0.40185,0.152326 -0.0489,-0.0086 -0.13995,-0.141097 -0.10455,-0.106236 0.71945,0.708451 1.46687,0.326321 2.0198,1.115565 0.0818,0.116822 0.64841,0.939353 0.56841,1.084313 -0.10993,0.199192 -0.65618,0.4 -0.66777,0.465214 -0.0161,0.09049 0.0991,0.206368 0.10054,0.31137 0.001,0.09721 -0.0903,0.265925 -0.0533,0.356748 0.22445,0.551733 0.71774,0.922436 0.95752,1.446382 0.0938,0.205002 0.10778,0.449974 0.21449,0.658458 0.14732,0.287806 0.34521,0.551162 0.48616,0.842055 0.22717,0.468805 0.40088,0.943851 0.66355,1.398802 0.17882,0.309729 0.94526,1.098394 0.95229,1.362477 0.005,0.206685 -0.084,0.370041 0.0172,0.591256 0.0216,0.04721 0.25768,0.26265 0.23454,0.306438 -0.0163,0.0309 -0.19886,0.110003 -0.18959,0.145682 0.0609,0.234665 0.41925,0.501605 0.54576,0.720725 0.0551,0.09538 -0.0428,0.106458 0.0364,0.225253 0.0483,0.07239 0.35615,0.265592 0.33962,0.376156 -0.0138,0.0926 -0.1384,0.200247 -0.13819,0.29709 7.9e-4,0.361913 0.38203,0.471374 0.5773,0.688028 0.1601,0.177628 0.30421,0.449466 0.43755,0.645575 0.11184,0.164497 0.24114,0.320114 0.32498,0.500504 0.0269,0.058 0.0577,0.245529 0.0617,0.181693 0.003,-0.05177 -0.0755,-0.529093 -0.01,-0.515906 0.26945,0.05407 0.40476,0.357629 0.63168,0.482793 0.24157,0.133241 0.51624,-0.05089 0.76133,-0.04117 0.35533,0.01408 1.19953,0.714759 1.42158,0.990127 0.35573,0.441161 -0.0881,0.622977 0.0305,0.938546 0.0194,0.05148 0.26385,0.347466 0.17861,0.396684 -0.17729,0.102357 -0.51444,-0.113538 -0.52957,-0.05643 -0.007,0.02748 0.084,0.03974 0.0624,0.05815 -0.0727,0.06175 -0.60277,-0.05578 -0.62924,0.09529 -0.0284,0.162179 0.36039,0.460957 0.48599,0.479978 0.13967,0.02114 0.24974,-0.01283 0.37814,0.0062 0.14359,0.02133 0.21702,0.114286 0.33283,0.17726 0.20739,0.112773 -0.22216,0.01423 -0.28195,0.01066 -0.16365,-0.0098 -1.13609,0.03273 -1.14209,0.217532 -0.007,0.218289 0.68973,0.637916 0.87441,0.74104 0.10068,0.05622 0.36288,0.471016 0.36749,0.599096 0.005,0.129617 -0.11251,0.179379 -0.0366,0.310872 0.0533,0.09237 0.2838,0.527323 0.40357,0.549296 0.11289,0.02072 0.32755,-0.169693 0.38128,0.01167 0.0451,0.152202 0.0555,0.440344 -0.0223,0.585124 -0.041,0.0763 -0.13782,0.06539 -0.21329,0.07968 -0.43368,0.08211 -0.55186,0.04664 -0.87163,-0.337008 -0.22401,-0.268748 -0.41811,-0.572413 -0.60257,-0.869016 -0.0574,-0.09233 -0.21746,-0.376661 -0.1631,-0.282496 0.0126,0.0218 0.17046,0.363778 0.065,0.324652 -0.28305,-0.105003 -0.34425,-0.457272 -0.58061,-0.606436 -0.16362,-0.103259 -0.44127,-0.02236 -0.55135,-0.181477 -0.19932,-0.288121 -0.18388,-0.676132 -0.27583,-1.014199"
         id="path17394" /><path
         style="fill:#cb9c2f;fill-opacity:1;stroke:#cb9c2f;stroke-width:0.264583;stroke-opacity:0.490196"
         d="m 199.29087,23.268727 c 0.59602,0.229542 0.69912,1.208823 0.68532,1.748405 -0.006,0.233269 0.42581,0.672561 0.52746,0.87616 0.0495,0.09918 0.036,0.218056 0.0758,0.318414 0.0686,0.173019 0.19725,0.316951 0.27375,0.48662 0.0396,0.08785 0.0728,0.180359 0.0871,0.275659 0.004,0.02638 -0.064,0.0097 -0.0791,-0.01228 -0.034,-0.04966 0.0307,-0.162425 0.0817,-0.170325 0.0266,-0.0041 0.0608,0.240345 0.0638,0.260165 0.0175,0.130598 0.1279,0.23473 0.2084,0.336015 0.29003,0.364834 0.0841,0.445678 0.17877,0.758762 0.0322,0.106471 0.1868,0.153224 0.2572,0.220924 0.26101,0.251148 0.39038,0.746993 0.46228,1.087633 0.12406,0.587796 0.62528,0.913363 0.83833,1.464493 0.15058,0.389543 0.073,0.943144 0.30178,1.296194 0.18052,0.278561 0.56186,0.31175 0.73989,0.55794 0.1171,0.161856 -0.0264,0.263811 0.0333,0.444373 0.0436,0.131834 0.17562,0.196125 0.22462,0.32666 0.0468,0.124312 -0.0266,0.19086 0.0448,0.314592 0.22732,0.393721 0.54891,0.656402 0.80732,1.011568 0.3642,0.500576 0.58462,1.344893 0.67642,1.92014 0.0465,0.291152 0.30557,0.511294 0.39277,0.780084 0.0636,0.196154 0.0756,0.405437 0.11342,0.608155 0.29392,0.0017 0.6081,0.112474 0.88175,0.0052 0.23996,-0.09406 -0.051,-0.522004 -0.15629,-0.757253 -0.12654,-0.28271 -0.56703,-0.837572 -0.58148,-1.069522 -0.006,-0.09869 0.18901,-0.0025 0.19936,-0.07888 0.006,-0.04756 -0.90011,-1.43238 -0.99184,-1.817715 -0.0759,-0.318727 0.20127,-0.188641 0.32517,-0.260173 0.10722,-0.0619 -0.10418,-0.224641 -0.15804,-0.336119 -0.1211,-0.250636 -0.23228,-0.507985 -0.36314,-0.753727 -0.29084,-0.546154 0.0343,0.0093 0.2647,0.07173 0.11402,0.0309 -0.16659,-0.167922 -0.24274,-0.258249 -0.37859,-0.449102 -0.71624,-0.965455 -0.92545,-1.515598 -0.25869,-0.680248 -0.42371,-1.52068 -0.93781,-2.073455 -0.10038,-0.107929 -0.27597,-0.06298 -0.34677,-0.176454 -0.15231,-0.244091 -0.10638,-0.576958 -0.22582,-0.840251 -0.20274,-0.44692 -0.41316,-0.481993 -0.6003,-0.877567 -0.42987,-0.908637 -1.01648,-1.727737 -1.4353,-2.648202 -0.10978,-0.241269 -0.22131,-0.481991 -0.31958,-0.728174 -0.0403,-0.100908 -0.072,-0.205051 -0.10594,-0.308252 -0.007,-0.02264 -0.029,-0.0904 -0.0183,-0.06912 2.9e-4,5.76e-4 0.24203,0.626915 0.22356,0.624251 -0.30213,-0.04356 -0.82643,-1.281234 -1.08508,-1.293056 -0.78637,-0.03594 -0.18047,0.874718 0.076,1.129595"
         id="path17396" /><path
         style="fill:#cb9c2f;fill-opacity:1;stroke:#cb9c2f;stroke-width:0.264583;stroke-opacity:0.490196"
         d="m 200.34897,48.567818 c -0.22074,-0.457245 -0.42709,-0.940101 -0.81846,-1.280385 -0.19229,-0.167195 0.0161,0.542002 -0.56632,-0.556736 -0.02,-0.03768 -0.0744,-0.163888 -0.0728,-0.225959 5.3e-4,-0.01627 0.033,-0.04682 0.0167,-0.04588 -0.27163,0.01569 -1.29517,0.699357 -0.57228,0.830209 0.80192,0.145156 -1.04219,-1.77524 -0.39361,-1.916827 0.5007,-0.109299 0.88211,1.10513 1.1797,1.194964 0.15986,0.04826 0.18703,-0.145531 0.34295,-0.154537 0.1074,-0.0062 0.21593,0.07338 0.3161,-0.0013 0.066,-0.04927 0.0465,-0.281459 0.091,-0.291555 0.0483,-0.01098 0.86164,0.546986 0.65398,0.571322 -0.0346,0.004 -0.22758,-0.194566 -0.20057,-0.210161 0.0905,-0.05226 0.54158,1.217454 0.55324,1.245182 0.13214,0.314106 0.0327,0.13148 0.13696,0.312074 0.29757,0.515408 -0.67845,0.198932 -0.66655,0.529701 0.002,0.06275 1.46559,1.103799 0,0 z"
         id="path17398" /><path
         style="fill:#cb9c2f;fill-opacity:1;stroke:#cb9c2f;stroke-width:0.264583;stroke-opacity:0.490196"
         d="m 198.48541,42.907301 c -0.0939,-0.129309 -0.18114,-0.263665 -0.28159,-0.387926 -0.0478,-0.05915 -0.10082,-0.14336 -0.17687,-0.144164 -0.11422,-0.0013 -0.9641,0.818777 -0.98195,0.407575 -0.0153,-0.352081 0.56018,0.04652 0.32099,-0.417118 -0.0849,-0.164473 -0.34393,-0.345602 -0.30825,-0.546381 0.11278,-0.634629 1.7686,0.47284 1.26285,-0.345204 -0.0524,-0.08478 -0.14079,-0.144061 -0.19063,-0.230384 -0.0959,-0.166023 0.19326,-0.02868 0.13053,-0.285419 -0.12354,-0.505553 -0.15204,-0.371319 -0.3715,-0.843063 -0.0744,-0.15988 -0.28358,-0.639892 -0.1793,-0.497692 0.42631,0.581377 0.74476,1.336127 1.27012,1.838132"
         id="path17400" /><path
         style="fill:#cb9c2f;fill-opacity:1;stroke:#cb9c2f;stroke-width:0.264583;stroke-opacity:0.490196"
         d="m 192.7667,38.740961 c -0.21927,-0.15107 -0.49519,-0.242364 -0.65781,-0.453213 -0.12463,-0.161589 -0.53192,-1.078405 -0.29795,-1.414301 0.18241,-0.261874 0.4599,-0.196586 0.38059,-0.313899 -0.45296,-0.669952 -0.2134,-0.171829 -0.20997,-0.90011 7e-5,-0.01318 -0.0408,-0.500526 -0.0188,-0.481698 0.35145,0.300263 0.28824,0.3571 0.54384,0.77978 0.0652,0.107725 0.14519,0.20574 0.21521,0.310362 0.0174,0.02606 0.0161,0.08658 0.047,0.08149 0.0883,-0.01453 -0.22977,-0.573889 -0.21781,-0.576866 0.15138,-0.03766 0.66212,1.738693 0.68515,1.835428 0.0498,0.20906 0.2974,0.513606 0.22652,0.716708"
         id="path17402" /><path
         style="fill:#cb9c2f;fill-opacity:1;stroke:#cb9c2f;stroke-width:0.264583;stroke-opacity:0.490196"
         d="m 192.7115,29.36354 c -0.85265,0.747109 -0.80354,-0.27967 -1.32209,-0.381164 -0.12386,-0.02424 0.0535,0.525375 -0.0962,0.432202 -0.12741,-0.0793 -0.98362,-0.79693 -0.75051,-0.863277 0.39071,-0.111204 0.63972,0.215723 0.89568,0.453509 0.18787,0.17454 0.0343,-0.453861 0.0877,-0.434517 0.31419,0.113876 0.35188,0.641527 0.62348,0.755531 0.17311,0.07267 0.38201,-0.01577 0.56198,0.03772 0.70303,0.208899 0.8847,0.546428 0.86359,1.19638"
         id="path17404" /><path
         style="fill:#cb9c2f;fill-opacity:1;stroke:#cb9c2f;stroke-width:0.264583;stroke-opacity:0.490196"
         d="m 194.20165,33.790945 c -0.16062,-0.364149 -0.25271,-0.754044 -0.40286,-1.121942 -0.057,-0.139721 -0.14095,-0.267364 -0.19882,-0.406741 -0.0564,-0.135797 -0.259,-0.459944 -0.11604,-0.425558 0.23573,0.0567 0.43557,0.367487 0.43947,0.361968 0.18566,-0.26267 0.0255,-0.718309 0.037,-0.70947 0.23394,0.181026 0.88684,1.88318 0.63651,2.08805 -0.11589,0.09485 -0.26348,0.142462 -0.39522,0.213693 z"
         id="path17406" /><path
         style="fill:#cb9c2f;fill-opacity:1;stroke:#cb9c2f;stroke-width:0.264583;stroke-opacity:0.490196"
         d="m 189.71877,22.645484 c 0.0105,-0.313937 0.0568,-0.710082 -0.0496,-1.021646 -0.093,-0.272296 -0.2323,-0.526702 -0.35948,-0.784814 -0.34329,-0.696732 -0.51689,0.745643 -0.90162,0.484334 -0.36352,-0.2469 -0.43393,-1.007553 -0.52728,-1.412286 -0.0202,-0.08758 -0.13473,-0.02498 -0.18279,-0.104525 -0.061,-0.100959 -0.34624,-0.828005 -0.25231,-0.861175 0.2602,-0.09189 0.52276,0.303361 0.70051,0.46478 0.39183,0.355836 0.71192,0.793265 1.15513,1.114983 0.11941,0.08667 0.32347,-0.0049 0.46962,0.127256 0.16626,0.150354 0.8,1.683502 0.55167,1.803841 -0.18982,0.09198 -0.40254,0.126168 -0.60381,0.189252 z"
         id="path17408" /><path
         style="fill:#cb9c2f;fill-opacity:1;stroke:#cb9c2f;stroke-width:0.264583;stroke-opacity:0.490196"
         d="m 206.60216,28.159887 c -0.10938,-0.404082 -0.49843,-1.865718 -0.82943,-2.085328 -0.0959,-0.06364 -0.0236,0.404927 -0.0809,0.408862 -0.38877,0.02671 -0.69014,-0.830402 -0.83589,-1.110966 -0.0261,-0.05024 -0.0644,-0.187755 -0.0955,-0.140442 -0.14383,0.218909 0.0618,0.579666 0.0254,0.543066 -0.33859,-0.340349 -0.46505,-0.875735 -0.6876,-1.290751 -0.15854,-0.295669 -0.57363,-0.86921 -0.43631,-1.25474 0.0732,-0.205428 0.75437,0.67362 0.85978,0.416286 0.0236,-0.05756 -0.0347,-0.213377 -0.0458,-0.241552 -0.0178,-0.04513 -0.2519,-0.640571 -0.36122,-0.812783 -0.25841,-0.407104 -0.68863,-0.709732 -0.94828,-1.118508 -0.0498,-0.07845 -0.24463,-0.622622 -0.13452,-0.632201 0.15548,-0.01353 0.24341,0.163745 0.32185,0.27052 0.01,0.01348 0.0278,0.05997 0.0251,0.04346 -0.0101,-0.06206 -0.0299,-0.122198 -0.0477,-0.182497 -0.24487,-0.828072 -0.45366,-0.528049 -0.79965,-1.023239 -0.0779,-0.111425 -0.6851,-1.508857 -0.57049,-1.611885 5.3e-4,-4.77e-4 0.5377,-0.119604 0.64145,-0.124061 0.1348,-0.0058 0.26599,-0.242415 0.3588,-0.214398 0.27133,0.08191 0.41516,0.39426 0.56441,0.615792 0.22504,0.334026 -0.0523,-0.554377 0.3168,0.09959 0.33484,0.59325 0.27503,0.821555 0.4208,1.365105 0.0176,0.06558 0.21462,0.687164 0.22478,0.688739 0.085,0.01319 0.22253,0.332918 0.22722,0.368613 0.0162,0.123004 -0.38891,-0.528304 -0.39782,-0.501911 -0.0177,0.05244 0.0331,0.105825 0.0545,0.156842 0.33702,0.800731 0.31579,0.360866 0.83921,0.804824 0.3226,0.273622 0.58395,0.53017 0.6653,0.753117 0.17636,0.4833 -0.52985,0.01095 -0.5226,0.05545 0.0223,0.136907 0.0987,0.288293 0.1516,0.412277 0.001,0.0033 0.0477,0.0816 0.047,0.08149 -0.0796,-0.01399 -0.36157,-0.409078 -0.41751,-0.323939 -0.10747,0.163568 0.11845,0.584529 0.10994,0.776771 -0.0151,0.342176 -0.43058,0.479939 -0.3637,0.85465 0.039,0.218395 0.73267,0.56347 0.93088,0.614275 0.70528,0.18078 0.47997,0.737265 0.88991,1.079778 0.0473,0.03955 0.085,-0.276711 0.16102,-0.245079 0.1822,0.0758 0.38027,0.496477 0.45288,0.622234 0.12556,0.217487 0.21337,-0.06322 0.2234,0.03762 0.0218,0.219582 -0.23952,0.417329 -0.22516,0.608064 0.0165,0.21962 0.0167,0.291777 -0.0532,0.494274 -0.0487,0.141335 0.10746,0.643173 -0.1084,0.685527 -0.18103,0.03552 -0.36699,0.03804 -0.55049,0.05706 z"
         id="path17410" /><path
         style="fill:#cb9c2f;fill-opacity:1;stroke:#cb9c2f;stroke-width:0.264583;stroke-opacity:0.490196"
         d="m 210.56584,27.914121 c -0.10345,-0.133432 -0.19691,-0.275254 -0.31035,-0.400302 -0.14527,-0.160128 -0.30394,-0.308967 -0.47258,-0.444261 -0.3089,-0.247822 0.047,0.493852 -0.4339,-0.227561 -0.16006,-0.240112 -0.11625,-0.491033 -0.23139,-0.750108 -0.0178,-0.03994 -0.25635,-0.43872 -0.25406,-0.440042 0.1527,-0.08816 -0.008,-0.441266 -0.12772,-0.657855 -0.29529,-0.53291 -0.54105,-0.53407 -0.63915,-1.231798 -0.0223,-0.158904 -0.007,-0.465656 0.14866,-0.578383 0.14742,-0.106868 0.25532,0.05562 0.25528,0.05543 -0.0301,-0.184745 -0.35183,-1.151008 -0.46193,-1.261681 -0.0707,-0.07107 -0.25622,-0.170201 -0.2917,-0.280682 -0.0715,-0.222639 0.0317,-0.172345 -0.18122,-0.438636 -0.15623,-0.19538 -0.65455,-0.460048 -0.73709,-0.603011 -0.17111,-0.296369 -0.22342,-0.672621 -0.50673,-0.90262 -0.0822,-0.06677 -0.0651,-0.318339 -0.11291,-0.420126 -0.0517,-0.110185 -0.10213,-0.220996 -0.1549,-0.330686 -0.0136,-0.02826 -0.0712,-0.101461 -0.047,-0.08149 0.43819,0.36186 0.80643,0.791037 1.21525,1.181683 0.30172,0.28831 0.47483,0.21256 0.81795,0.643252 0.15051,0.188926 0.28787,0.388316 0.42012,0.590443 0.0644,0.09837 0.0375,0.281599 0.14864,0.319821 0.12014,0.04131 0.15353,-0.170712 0.42117,0.292853 0.26204,0.453869 0.27976,1.015551 0.56718,1.468926 0.22587,0.356288 0.29498,0.03253 0.513,0.464383 0.66343,1.314095 1.00653,2.816548 1.77595,4.074073 0.0691,0.112864 -0.13346,-0.281675 -0.0608,-0.392258 0.0535,-0.08144 0.2309,0.151114 0.4508,0.543761 0.37552,0.670531 0.58098,1.41096 0.93554,2.082007 0.30827,0.583414 0.7747,1.2055 0.85504,1.867717 0.0521,0.429395 0.63354,0.708197 0.82788,1.072134 0.081,0.151649 0.33718,0.594278 0.22478,0.464188 -0.10154,-0.117533 -0.23018,-0.293413 -0.31121,-0.414285 -0.45814,-0.683456 0.20655,0.310465 -0.2262,0.681101 -0.12786,0.109509 -0.27955,0.149495 -0.43321,0.098 -0.42131,-0.141187 -0.75085,-1.45112 -0.91831,-1.490747 -0.0666,-0.01577 -0.14567,0.07585 -0.20196,0.03692 -0.54428,-0.37634 -0.73168,-1.025638 -0.91848,-1.628275 -0.0699,-0.225377 -0.007,-0.329882 0.004,-0.567213 0.005,-0.118994 -0.6606,-2.762412 -0.98694,-2.682518 -0.20423,0.05 -0.37419,0.191894 -0.56129,0.287843 z"
         id="path17412" /><path
         style="fill:#cb9c2f;fill-opacity:1;stroke:#cb9c2f;stroke-width:0.264583;stroke-opacity:0.490196"
         d="m 217.63783,39.926138 c 0.0514,-0.830033 0.10173,-0.389443 -0.15053,-1.15897 -0.10967,-0.334521 -0.35366,0.03557 -0.5693,-0.200092 -0.25929,-0.283352 -0.40548,-0.663834 -0.64508,-0.967607 -0.31377,-0.397815 -0.51857,-0.492591 -0.74807,-0.958853 -0.1654,-0.336034 -0.51093,-0.745471 -0.5346,-1.125559 -0.002,-0.02784 0.0413,0.08434 0.057,0.06127 0.0366,-0.05387 0.0618,-0.118602 0.0669,-0.183507 0.0119,-0.150291 -0.0642,-0.456133 -0.045,-0.452117 0.42206,0.08812 0.56797,0.69913 0.78937,0.992957 0.35522,0.471419 0.0901,-0.3919 0.15632,-0.365503 0.40656,0.162113 0.59425,0.953228 0.84808,1.306743 0.18048,0.251354 0.34669,0.561498 0.55552,0.787527 0.19936,0.215789 0.66701,0.415906 0.75347,0.731181 0.0105,0.03828 -0.15658,0.538202 -0.16364,0.65223 -0.017,0.273973 0.17358,0.458538 0.20857,0.698095 0.004,0.02721 -0.0348,-0.04259 -0.0516,-0.06439 -0.10805,-0.140353 -0.22358,-0.275362 -0.32289,-0.422031 -0.14544,-0.214813 -0.27369,-0.44078 -0.41053,-0.66117"
         id="path17414" /><path
         style="fill:#cb9c2f;fill-opacity:1;stroke:#cb9c2f;stroke-width:0.264583;stroke-opacity:0.490196"
         d="m 227.64452,59.117086 c -0.10139,-0.29882 -0.52988,-1.770004 -0.76426,-1.847701 -0.0377,-0.01249 -0.0756,0.07 -0.10891,0.04839 -0.12984,-0.08416 -0.70249,-1.206921 -0.66895,-1.395683 0.0321,-0.180821 0.11526,-0.08416 0.0884,-0.33351 -0.0179,-0.165618 -0.0892,-0.385275 -0.0639,-0.39769 0.0575,-0.02827 0.46607,0.255625 0.53496,0.27786 0.84787,0.273643 1.13872,1.494737 1.29713,2.271639 0.0143,0.07029 0.25727,0.933947 0.21553,1.034521 -0.0828,0.199382 -0.39143,0.271126 -0.52992,0.342169 z"
         id="path17416" /><path
         style="fill:#cb9c2f;fill-opacity:1;stroke:#cb9c2f;stroke-width:0.264583;stroke-opacity:0.490196"
         d="m 225.00619,54.135673 c -0.4517,-0.08478 -0.19293,-1.096828 -0.61876,-1.308762 -0.12876,-0.06408 -0.0615,0.251037 -0.20372,0.233508 -0.094,-0.01159 -0.70584,-1.518978 -0.8005,-1.710875 -0.18376,-0.372512 -0.22836,-0.804971 -0.20612,-1.242771 0.003,-0.06345 0.0115,-0.219568 0.0615,-0.180388 0.3068,0.240353 0.37474,0.635974 0.55516,0.961572 0.19234,0.347113 0.50755,0.576014 0.796,0.829776 0.35445,0.311827 0.36225,0.751906 0.45356,1.172342 0.13004,0.59871 0.19641,0.633175 -0.0371,1.245598 z"
         id="path17418" /><path
         style="fill:#cb9c2f;fill-opacity:1;stroke:#cb9c2f;stroke-width:0.264583;stroke-opacity:0.490196"
         d="m 222.03111,60.684743 c -0.18633,-0.702662 -0.43334,-0.792816 -0.84321,-1.273342 -0.0471,-0.05521 -0.10817,-0.100031 -0.14446,-0.162878 -0.26114,-0.452321 -0.25366,-0.899538 -0.45461,-1.323855 -0.0465,-0.09829 -0.18554,-0.180489 -0.15769,-0.285616 0.0289,-0.108952 0.1084,0.137653 0.024,-0.10805 -0.21514,-0.626655 -0.60543,-1.048594 -0.99376,-1.534107 -0.12024,-0.150328 -0.2662,-0.348869 -0.41089,-0.487122 -0.0891,-0.08509 -0.10708,0.106828 -0.22113,-0.04618 -0.11758,-0.157729 -0.21267,-0.331057 -0.31644,-0.498189 -0.0408,-0.06573 -0.13564,-0.275855 -0.11605,-0.201007 0.0479,0.182997 0.13241,0.34076 0.19724,0.516303 0.0119,0.03234 0.0597,0.114215 0.0286,0.0994 -0.14313,-0.06813 -0.62378,-0.454864 -0.59577,-0.670118 0.0758,-0.582676 0.75562,0.0013 0.80455,-0.06612 0.0761,-0.105077 0.0665,-0.249036 0.13784,-0.347594 0.0523,-0.07223 0.24607,0.122307 0.26522,0.03521 0.0842,-0.382762 -0.14733,-0.810938 -0.24359,-1.170438 -0.0225,-0.084 -0.11216,-0.27869 -0.0274,-0.259458 0.39889,0.09044 0.41198,1.026192 0.72855,1.049801 0.17615,0.01312 0.42929,-0.443934 0.43705,-0.440664 0.14314,0.06032 0.31626,0.321167 0.37151,0.393965 0.84136,1.108583 0.69628,1.622523 0.89353,2.845096 0.10152,0.629237 0.17781,-0.04071 0.14236,0.308957 -0.0234,0.231282 -0.20347,0.424555 -0.19379,0.662389 0.0197,0.482627 0.37083,1.032095 0.55237,1.455748 0.096,0.223922 0.61612,1.111462 0.53024,1.280189 -0.0688,0.135271 -0.43402,0.08117 -0.39435,0.22768 0.0234,0.08663 0.88053,0.466201 0.64508,0.967607 -0.0329,0.07004 -0.4136,-0.483983 -0.64508,-0.967607 z"
         id="path17420" /><path
         style="fill:#cb9c2f;fill-opacity:1;stroke:#cb9c2f;stroke-width:0.264583;stroke-opacity:0.490196"
         d="m 225.72571,45.875556 c 0.0438,-0.484368 -0.18383,-0.922909 -0.24045,-1.389555 -0.004,-0.0316 -0.007,-0.506293 0.005,-0.502727 0.33358,0.10014 0.3373,0.84445 0.41977,0.764493 0.11986,-0.116208 -0.23596,-1.098349 0.0898,-1.25425 0.20308,-0.0972 0.25426,0.411306 0.22983,0.635117 -0.057,0.52207 -0.47438,1.268434 -0.50399,1.746922 -0.0152,0.24539 0.0917,0.483105 0.13747,0.724657"
         id="path17422" /><path
         style="fill:#cb9c2f;fill-opacity:1;stroke:#cb9c2f;stroke-width:0.264583;stroke-opacity:0.490196"
         d="m 224.48402,42.427437 c -0.22965,-0.320199 -0.56287,-0.550757 -0.76079,-0.893559 -0.0411,-0.0712 0.07,0.174776 0.14934,0.196276 0.0289,0.0078 0.32858,-1.013505 0.42678,-0.920043 0.51686,0.491913 1.01695,1.222017 0.81705,1.976572 -0.0811,0.306284 -0.45729,0.685342 -0.73416,0.387649"
         id="path17424" /><path
         style="fill:#cb9c2f;fill-opacity:1;stroke:#cb9c2f;stroke-width:0.264583;stroke-opacity:0.490196"
         d="m 221.21986,40.965514 c 0.0186,-0.225626 0.0583,-0.450498 0.0558,-0.676876 -0.007,-0.605954 -0.27318,-0.642847 0.0145,-0.486426 0.0711,0.03864 0.13936,-0.265872 0.18664,-0.238138 0.17358,0.101817 0.25899,0.601427 0.34013,0.788739 0.0807,0.186335 0.26513,0.37243 0.31226,0.565798 0.0591,0.242544 0.0714,0.474813 -0.0899,0.667618"
         id="path17426" /><path
         style="fill:#cb9c2f;fill-opacity:1;stroke:#cb9c2f;stroke-width:0.264583;stroke-opacity:0.490196"
         d="m 221.52822,36.571769 c -0.19497,0.136321 -0.3118,0.671018 -0.63153,0.552942 -0.31028,-0.114588 -0.55411,-0.423828 -0.64735,-0.734505 -0.034,-0.113373 -0.036,-0.234039 -0.0582,-0.350308 -0.003,-0.01452 -0.028,-0.05056 -0.0166,-0.04115 0.17632,0.145605 -0.0757,0.130328 -0.0962,0.20765 -0.004,0.01632 0.32784,0.101724 0.41491,-0.167113 0.13213,-0.407993 -0.37742,-0.810673 -0.26712,-0.874356 0.0437,-0.02521 0.31868,0.275482 0.48652,0.218906 0.45411,-0.153069 0.20222,-0.859435 0.30638,-1.190972 0.005,-0.01669 0.27702,0.242787 0.41629,0.484003 0.16238,0.281244 0.69787,1.218649 0.437,1.580298 -0.0909,0.126058 -0.22944,0.209735 -0.34416,0.3146 z"
         id="path17428" /><path
         style="fill:#cb9c2f;fill-opacity:1;stroke:#cb9c2f;stroke-width:0.264583;stroke-opacity:0.490196"
         d="m 217.80021,25.685853 c -0.0801,-0.347921 -0.19669,-0.869132 0.0398,-1.203643 0.0307,-0.04344 0.14085,-0.138919 0.14429,-0.199201 0.0414,-0.726775 -0.53879,-0.168996 -0.69408,0.132713 -0.15086,0.293113 0.5538,-0.717117 0.87166,-0.561196 0.33857,0.166091 0.75714,1.723137 0.64157,2.034427"
         id="path17430" /><path
         style="fill:#cb9c2f;fill-opacity:1;stroke:#cb9c2f;stroke-width:0.264583;stroke-opacity:0.490196"
         d="m 214.11111,28.004084 c 0.0806,-0.378065 -0.0105,-0.68703 -0.0653,-1.048811 -0.0188,-0.123896 -0.0691,-0.721614 0.10457,-0.791966 0.17967,-0.07277 0.41829,0.499935 0.50185,0.644668 0.23205,0.401912 0.22159,1.858428 -0.10634,2.111306"
         id="path17432" /><path
         style="fill:#cb9c2f;fill-opacity:1;stroke:#cb9c2f;stroke-width:0.264583;stroke-opacity:0.490196"
         d="m 212.86298,24.407572 c -0.28751,0.155689 -0.0767,-0.492611 -0.26155,-0.515395 -0.37629,-0.04637 0.47317,0.997571 0.26155,0.515395 -0.13728,-0.312804 -0.40642,-0.551688 -0.57067,-0.851209 -0.0568,-0.10365 -0.16177,-0.627441 -0.18958,-0.752524 -0.0139,-0.06258 -0.101,-0.19114 -0.0369,-0.188735 0.13399,0.005 0.72775,0.394561 0.82719,0.522023 0.16707,0.214143 0.18215,0.332695 0.30094,0.608555 0.1167,0.271025 0.23234,0.579074 0.2016,0.586223 -0.17464,0.0406 -0.35503,0.05044 -0.53254,0.07567 z"
         id="path17434" /><path
         style="fill:#cb9c2f;fill-opacity:1;stroke:#cb9c2f;stroke-width:0.264583;stroke-opacity:0.490196"
         d="m 210.47154,20.964106 c -0.31452,0.123155 -0.4109,0.05377 -0.50152,0.304041 -0.10298,0.284421 -0.007,0.406222 -0.0596,0.345882 -0.41076,-0.4743 0.11378,-1.52647 0.12044,-1.525481 0.10217,0.01517 0.26145,0.152247 0.29136,0.230178 0.0791,0.206155 -0.0695,0.674976 0.14932,0.64538 1.09406,0.6954 0.30418,-0.653688 0.5979,-0.823267 0.18313,-0.105729 0.57844,0.601601 0.52049,0.764287 -0.0299,0.08404 -0.14866,0.15388 -0.19918,0.216407 -0.34844,0.431269 -0.66668,0.492614 -1.1705,0.704766"
         id="path17436" /><path
         style="fill:#cb9c2f;fill-opacity:1;stroke:#cb9c2f;stroke-width:0.264583;stroke-opacity:0.490196"
         d="m 224.80387,23.033036 c -0.32595,-0.586627 -0.52088,-0.916534 -0.81566,-1.550008 -0.67096,-1.441837 0.67944,-0.274762 0.83468,0.372825 0.0424,0.176748 0.10347,0.354189 0.10054,0.535922 -0.004,0.217408 -0.18374,0.433513 -0.11956,0.641261 0.0639,0.206859 0.34618,0.274577 0.45951,0.459052 0.0244,0.03969 0.16846,0.610124 0.19045,0.766507 0.0772,0.549024 -0.46116,0.108576 -0.54822,-0.176047 -0.52939,-1.73094 0.45763,-0.480044 -0.67834,-1.636532"
         id="path17438" /><path
         style="fill:#cb9c2f;fill-opacity:1;stroke:#cb9c2f;stroke-width:0.264583;stroke-opacity:0.490196"
         d="m 244.03098,62.223813 c -0.25271,-0.362283 -0.40189,-0.804751 -0.67889,-1.150908 -0.57973,-0.724495 -0.86102,-0.172228 -1.15898,-0.32322 -0.66476,-0.33686 -0.52064,-1.333537 -0.58598,-1.950622 -0.0169,-0.1597 -0.0835,-0.294868 -0.0535,-0.454433 0.0285,-0.1515 -0.003,0.01265 0.14498,-0.0982 0.19327,-0.144304 -0.0164,-0.699272 -0.0437,-0.836734 -0.0688,-0.346242 -0.0489,-0.331203 -0.0765,-0.643972 -0.002,-0.01778 -0.0216,-0.06538 -0.009,-0.05282 0.48379,0.478851 1.04932,1.566762 1.40569,2.172743 0.1081,0.183814 0.22599,0.341532 0.33212,0.525354 0.0335,0.05795 0.10755,0.240368 0.10037,0.173844 -0.0322,-0.298 -0.11512,-0.648671 -0.1955,-0.937437 -0.23658,-0.849971 -0.39919,-0.706871 -0.0272,-1.24469 0.17595,-0.254341 -0.0658,-0.579792 0.0201,-0.576569 0.20981,0.0079 0.48204,0.53645 0.5881,0.681791 0.30867,0.422968 0.57518,0.869744 0.80801,1.337125 0.0504,0.101087 0.0562,0.330258 0.16397,0.296481 0.0918,-0.02878 -0.087,-0.352189 -0.0152,-0.288234 0.11566,0.102915 0.61169,1.470086 0.7294,1.737439 0.11872,0.269637 0.14695,0.558774 0.32393,0.798095 0.0674,0.09115 0.41331,0.431652 0.39189,0.541549 -0.0179,0.09167 -0.16744,0.181964 -0.20685,0.228076 -0.24242,0.283697 -0.14786,0.768085 -0.053,1.080905 0.0711,0.234265 0.2952,0.80046 0.27218,0.820732 -0.0314,0.02766 -0.38516,-0.205917 -0.50953,-0.183893 -0.21179,0.0375 -0.32185,0.303466 -0.56617,0.254442 -0.32554,-0.06532 -0.44818,-0.539959 -0.57172,-0.778169 -0.0579,-0.11162 -0.22945,-0.447323 -0.16659,-0.338434 0.17271,0.299143 -0.24703,-0.133416 -0.27427,-0.225549 -0.054,-0.182703 -0.0589,-0.376465 -0.0883,-0.564698 -0.11523,-0.307715 -0.23047,-0.615431 -0.34571,-0.923144"
         id="path17440" /><path
         style="fill:#cb9c2f;fill-opacity:1;stroke:#cb9c2f;stroke-width:0.264583;stroke-opacity:0.490196"
         d="m 234.01429,61.741335 c -0.23214,-0.193741 -0.49295,-0.427876 -0.75331,-0.593656 -0.0726,-0.0462 -0.15964,-0.121216 -0.24082,-0.09275 -0.0331,0.01159 -0.0616,0.158229 -0.0952,0.134612 -0.0811,-0.05701 -0.16202,-0.11889 -0.22217,-0.197686 -0.21369,-0.279913 -0.10576,-0.818332 0.25008,-0.926679 0.0638,-0.01942 0.20865,0.143679 0.26696,0.06318 0.0182,-0.02511 0.0151,-0.06026 0.0195,-0.09095 0.0362,-0.250256 0.0887,-0.567571 0.0906,-0.566613 0.0956,0.04652 1.07076,1.783791 1.00019,1.907053 -0.0798,0.139319 -0.21062,0.242329 -0.31593,0.363495 z"
         id="path17442" /><path
         style="fill:#cb9c2f;fill-opacity:1;stroke:#cb9c2f;stroke-width:0.264583;stroke-opacity:0.490196"
         d="m 229.15871,56.337829 c 0.0388,-0.290415 0.0579,-0.584155 0.11642,-0.871244 0.18203,-0.892722 0.59169,0.104286 0.65939,0.119102 0.28712,0.06284 0.3497,-0.352504 0.35097,-0.340254 0.0327,0.316611 -0.54152,1.86967 -0.81348,1.585156 -0.13449,-0.140705 -0.20887,-0.328507 -0.3133,-0.49276 z"
         id="path17444" /><path
         style="fill:#cb9c2f;fill-opacity:1;stroke:#cb9c2f;stroke-width:0.264583;stroke-opacity:0.490196"
         d="m 229.9326,63.641559 c -0.53198,-0.63773 -0.72252,-1.4176 -0.81565,-2.223661 -0.0144,-0.124362 -0.0195,-0.249619 -0.0289,-0.374454 -0.001,-0.01863 -0.019,-0.06627 -0.004,-0.05594 0.1063,0.07053 0.31226,0.575752 0.4555,0.439634 0.16313,-0.155006 0.32193,-0.491193 0.39663,-0.685331 0.0499,-0.129757 0.0448,-0.493427 0.14064,-0.392666 0.35181,0.370049 -0.0441,0.747525 -0.1295,1.110586 -0.0704,0.299461 -0.10349,0.60733 -0.12775,0.914 -0.0547,0.690806 0.58814,1.988185 -0.28911,0.659477"
         id="path17446" /><path
         style="fill:#cb9c2f;fill-opacity:1;stroke:#cb9c2f;stroke-width:0.264583;stroke-opacity:0.490196"
         d="m 227.085,73.630122 c -0.11833,-0.379743 -0.124,-0.644898 -0.0699,-1.031705 0.0125,-0.08909 -0.0244,-0.250936 0.0648,-0.26198 0.10141,-0.01254 0.18668,0.06749 0.29223,0.0196 0.24676,-0.111916 0.54399,-0.728278 0.71133,0.0094 0.0717,0.316193 0.12676,0.881089 0.061,1.203439 -0.0192,0.0942 -0.41233,0.808432 -0.62003,0.64771 -0.27385,-0.21191 -0.24565,-0.250833 -0.43946,-0.586517 z"
         id="path17448" /><path
         style="fill:#cb9c2f;fill-opacity:1;stroke:#cb9c2f;stroke-width:0.264583;stroke-opacity:0.490196"
         d="m 236.05433,22.43378 c -0.16209,-0.365468 -0.30521,-0.736607 -0.45234,-1.107856 -0.0124,-0.03116 -0.0765,-0.100939 -0.0448,-0.09004 0.0657,0.02259 0.2478,0.21128 0.30704,0.257341 0.24384,0.18958 0.34864,-0.02019 0.45655,0.366595 0.0276,0.09909 0.0764,0.213536 0.0331,0.306846 -0.0563,0.121346 -0.32867,0.136535 -0.29956,0.267114 0.0629,0.281982 0.42791,0.416729 0.52694,0.688129"
         id="path17450" /><path
         style="fill:#cb9c2f;fill-opacity:1;stroke:#cb9c2f;stroke-width:0.264583;stroke-opacity:0.490196"
         d="m 234.83614,20.485987 c -0.18215,-0.19906 -0.37678,-0.387385 -0.54646,-0.597181 -0.10802,-0.133562 -0.18839,-0.287308 -0.28421,-0.42988 -0.14267,-0.212298 -0.29177,-0.420306 -0.43127,-0.634709 -0.3258,-0.500742 -0.26525,-0.58925 0.13418,-0.09196 0.27669,0.344484 0.53976,0.721176 0.78152,1.091651 0.13611,0.208567 0.18894,0.468989 0.34624,0.662075 0.35783,0.43924 1.33088,1.135024 0.16379,0.608056 -0.22068,-0.09964 -0.44145,-0.199055 -0.66218,-0.298583"
         id="path17452" /><path
         style="fill:#cb9c2f;fill-opacity:1;stroke:#cb9c2f;stroke-width:0.264583;stroke-opacity:0.490196"
         d="m 243.42394,27.363679 c -0.0552,-0.262549 -0.88419,-1.763406 -0.58982,-1.832513"
         id="path17454" /><path
         style="fill:#cb9c2f;fill-opacity:1;stroke:#cb9c2f;stroke-width:0.264583;stroke-opacity:0.490196"
         d="m 245.64251,31.131499 c -0.1459,-0.186182 -0.29181,-0.372367 -0.43772,-0.558551 -0.14655,-0.166497 -0.30201,-0.325552 -0.43964,-0.499494 -0.15546,-0.196479 -0.22908,-0.357965 -0.18313,-0.604131 0.0157,-0.08432 0.14745,-0.155964 0.19291,-0.227272 0.043,-0.06753 0.0488,-0.220374 0.12721,-0.203829 0.20542,0.04337 0.33586,0.207547 0.45114,0.369715 0.25751,0.362212 0.52176,0.784733 0.62748,1.22405 0.0386,0.160255 -0.0117,0.653343 -0.33825,0.499512 -0.25925,-0.12214 -0.30087,-0.48786 -0.45131,-0.731792"
         id="path17456" /><path
         style="fill:#cb9c2f;fill-opacity:1;stroke:#cb9c2f;stroke-width:0.264583;stroke-opacity:0.490196"
         d="m 243.21969,28.30736 c -0.0494,-0.434781 -0.27608,-0.793972 -0.33071,-1.221541 -0.014,-0.109757 0.0384,-0.22483 0.0101,-0.331796 -0.016,-0.06041 -0.0726,0.05525 -0.12634,-0.0067 -0.11934,-0.137557 -0.20343,-0.302452 -0.29449,-0.460163 -0.16305,-0.282409 -0.30184,-0.533389 -0.32201,-0.85715 -0.0169,-0.271176 0.40047,0.0028 0.52609,5.03e-4 0.0946,-0.0017 0.14266,-0.1028 0.20615,-0.104534 0.23466,-0.0064 0.41625,0.521372 0.51927,0.699799 0.0696,0.120521 0.0875,-0.388711 0.43686,0.320016 0.33132,0.672068 0.26913,1.294727 0.0742,1.999831 -0.009,0.03389 -0.1411,0.463058 -0.26802,0.458968 -0.19915,-0.0064 -1.00929,-1.199219 -1.14729,-1.43823"
         id="path17458" /><path
         style="fill:#cb9c2f;fill-opacity:1;stroke:#cb9c2f;stroke-width:0.264583;stroke-opacity:0.490196"
         d="m 217.04733,44.866678 c -0.36117,0.02986 -1.01384,-1.055745 -0.93295,-1.141849 0.0341,-0.03634 0.4788,0.30493 0.56947,0.337619 0.30271,0.109141 0.54334,-0.03608 0.83086,0.04183 0.1387,0.03758 0.23967,0.149984 0.39399,0.170918 0.086,0.01167 0.23419,-0.08094 0.26035,0.0019 0.13838,0.437848 -0.95616,0.65365 -1.12172,0.589671 -0.4242,-0.163922 -0.62934,-0.553825 -0.85071,-0.899593"
         id="path17460" /><path
         style="fill:#cb9c2f;fill-opacity:1;stroke:#cb9c2f;stroke-width:0.264583;stroke-opacity:0.490196"
         d="m 217.39281,83.84796 c -0.35059,-0.949391 -0.7532,-1.878613 -1.14465,-2.811804 -0.13477,-0.321302 -0.27825,-0.638921 -0.41202,-0.960646 -0.25334,-0.609312 0.65082,-0.164939 0.82558,-0.722503 0.10296,-0.328478 -0.10292,-0.693248 0.12472,-0.98371 0.17384,-0.221798 1.18036,2.163638 1.25999,2.376432 0.19773,0.528412 -0.23559,0.872019 -0.29847,1.370851 -0.0791,0.627724 0.0917,1.227529 0.10373,1.220594 0.0783,-0.04523 -0.12841,-0.267404 -0.13111,-0.262355 -0.1316,0.247046 -0.0877,0.917096 -0.32777,0.773141 -1.05085,-0.630132 -0.93248,-1.457497 -0.95416,-2.358369"
         id="path17462" /><path
         style="fill:#cb9c2f;fill-opacity:1;stroke:#cb9c2f;stroke-width:0.264583;stroke-opacity:0.490196"
         d="m 219.64427,83.654412 c -0.0897,-0.296503 -0.17535,-0.594262 -0.26909,-0.889511 -0.59915,-1.887034 -0.27189,-0.632639 -0.84916,-3.023377 -0.0197,-0.08177 -0.0946,-0.319075 -0.051,-0.247134 0.0904,0.149217 0.11061,0.540525 0.26171,0.453289 0.19,-0.109696 -0.15042,-0.41543 -0.18186,-0.63256 -0.0992,-0.685552 -0.018,-2.028111 0.66051,-2.419869 0.29944,-0.172881 0.47374,0.82537 0.49852,0.951682 0.093,0.47362 -0.18988,0.319178 -0.0141,1.298851 0.18973,1.057243 1.24146,3.551052 1.03321,4.453686 -0.0594,0.257654 -0.98994,0.0051 -1.08876,0.05494 -0.43788,0.220676 -0.65748,0.790575 -1.11984,0.953855 -0.26212,0.09256 0.28966,-0.474552 0.43449,-0.711825"
         id="path17464" /><path
         style="fill:#cb9c2f;fill-opacity:1;stroke:#cb9c2f;stroke-width:0.264583;stroke-opacity:0.490196"
         d="m 219.83048,76.796211 c -0.32027,-0.631185 -0.645,-1.260128 -0.96082,-1.893549 -0.49039,-0.983541 -0.4818,-0.814213 -0.65105,-1.621665 -0.001,-0.0067 -0.16459,-0.710317 0.008,-0.691182 0.51723,0.05721 0.56915,0.473927 0.93348,0.946407 0.10836,0.14052 0.21054,0.519686 0.34575,0.404773 0.0403,-0.03422 -0.0434,-0.199039 -0.01,-0.158213 0.83517,1.016389 0.6656,1.83638 0.33411,3.013429 z"
         id="path17466" /><path
         style="fill:#cb9c2f;fill-opacity:1;stroke:#cb9c2f;stroke-width:0.264583;stroke-opacity:0.490196"
         d="m 226.64142,70.897093 c 0.007,0.387334 1.06695,0.271354 1.38153,0.452128 0.22851,0.131318 -0.15744,0.852072 -0.17253,1.042043 -0.0208,0.261829 0.0125,0.91409 0.15104,1.090837 0.23049,0.294122 0.35989,-0.22983 0.33884,0.6751 -0.009,0.372428 -0.0182,0.757021 -0.0722,1.127549 -0.0139,0.09565 -0.0419,0.336989 -0.10991,0.268338 -0.65868,-0.664531 -1.06978,-1.856841 -1.09955,-2.786621"
         id="path17468" /><path
         style="fill:#cb9c2f;fill-opacity:1;stroke:#cb9c2f;stroke-width:0.264583;stroke-opacity:0.490196"
         d="m 229.14026,62.222242 c -0.21734,-0.661617 -0.42776,-1.222322 -0.38465,-1.918888 0.002,-0.03596 -0.0197,-0.129347 0.009,-0.107704 0.44061,0.331036 0.46772,0.966152 0.78316,1.39174 0.0494,0.06668 0.27345,0.08992 0.14637,0.253534 -0.13751,0.177054 -0.63426,0.171995 -0.554,0.381318 0.27929,0.728374 0.72724,0.408313 1.06879,0.704389 0.24113,0.209032 0.0854,0.894321 0.10126,1.181045 0.0132,0.238905 0.01,0.227951 0.0392,0.438356 0.003,0.025 0.0333,0.08915 0.0126,0.0747 -0.33997,-0.237369 -0.3608,-0.400151 -0.57517,-0.784506"
         id="path17470" /><path
         style="fill:#cb9c2f;fill-opacity:1;stroke:#cb9c2f;stroke-width:0.264583;stroke-opacity:0.490196"
         d="m 232.98368,74.11925 c -0.21513,-0.775409 -0.93778,-1.151242 -1.1311,-1.959134 -0.0792,-0.330909 0.30597,-0.298532 0.29771,-0.684078 -5.3e-4,-0.02633 -0.2709,-0.644456 -0.24224,-0.648919 0.40097,-0.06246 0.7222,1.094478 0.98302,1.296836 0.26944,0.209053 0.34295,-0.167854 0.59244,-0.208878 0.53965,-0.08873 1.02955,0.20388 1.43993,0.500359 0.045,0.0325 0.0926,0.129215 0.13652,0.09532 0.0677,-0.05221 0.0828,-0.331074 0.0717,-0.246283 -0.0387,0.297622 -0.30404,1.44394 -0.60233,1.63848 -0.27675,0.180491 -0.34008,-0.190632 -0.57395,-0.129603 -0.33268,0.08681 -0.64781,0.2306 -0.97172,0.345898 z"
         id="path17472" /><path
         style="fill:#cb9c2f;fill-opacity:1;stroke:#cb9c2f;stroke-width:0.264583;stroke-opacity:0.490196"
         d="m 235.86517,79.339487 c -0.62525,-0.505061 -1.07911,-1.157351 -1.38815,-1.892687 -0.11587,-0.275706 -0.12767,-0.591648 -0.27426,-0.845547 -0.0626,-0.108331 -0.59095,-0.476864 -0.66711,-0.290941 -0.0972,0.237331 0.50527,-0.05923 0.60994,-0.05508 0.34376,0.01363 0.94403,-0.05836 1.26398,0.08975 0.30345,0.140478 0.71182,0.59903 0.90564,0.880534 0.0612,0.08888 0.17214,0.352737 0.20552,0.250118 0.14119,-0.434025 -0.59446,-3.285823 0.28714,-1.425768 0.24345,0.513654 0.60609,1.761641 0.80458,1.799365 0.14418,0.0274 0.27372,0.107307 0.38862,0.26733 0.18341,0.255437 0.17956,0.681585 0.44209,0.871582 0.0813,0.05886 0.45277,0.250061 0.35734,0.01905 -0.10659,-0.257982 -0.88574,-1.178581 -1.28639,-0.957783 -0.51422,0.283387 -0.65397,0.554013 -1.03826,0.865783 -0.19249,0.156162 -0.68124,0.186668 -0.61068,0.424283 0.0979,0.329708 0.59908,0.338447 0.89111,0.520147 0.2948,0.18343 0.56647,0.469717 0.83738,0.674092 0.14887,0.112313 1.07449,1.180124 1.07863,1.180166 0.60267,0.0064 0.36707,-1.208752 0.62844,-1.028679 0.42683,0.294071 0.52743,0.879121 0.65426,1.292005 0.005,0.01651 0.0709,0.144331 0.0843,0.145976 0.0393,0.0048 0.0202,-0.200064 0.13456,-0.19037 0.54996,0.04663 1.36577,2.160778 1.54437,2.621994 0.10801,0.278927 1.42389,1.349862 1.37066,1.421323 -0.24998,0.335569 -1.17535,-0.318582 -1.19546,-0.641503 -0.002,-0.0236 0.0267,0.03952 0.0355,0.06146 0.10667,0.265149 -0.14946,0.481417 0.18875,0.679796 1.23087,0.721974 0.34016,1.169424 0.7028,2.134717 0.13346,0.355259 0.48017,-0.278855 0.70334,-0.334367 0.32317,-0.08039 0.64296,0.575368 0.83023,0.749924 0.31896,0.297304 0.38521,0.90841 0.56333,1.293289 0.29062,0.627967 0.80936,1.045136 1.08651,1.687814 0.39781,0.922488 0.61917,1.989875 1.12418,2.864588 0.43226,0.748686 1.11793,1.159441 1.6649,1.825098 0.14047,0.170945 0.2982,0.446813 0.37383,0.665139 0.0225,0.06488 0.009,0.282543 0.0636,0.321829 0.0623,0.0447 0.3691,0.304903 0.3911,0.306885 0.077,0.0069 0.0677,-0.111808 0.1412,-0.02006 0.0946,0.118076 -0.0147,0.203893 0.0648,0.341606 0.0211,0.03657 0.0788,0.18478 0.11533,0.199755 0.0207,0.0085 0.0762,-0.02816 0.0668,-0.0078 -0.11134,0.240358 -0.20721,0.281535 -0.17991,0.605822 0.0135,0.161078 0.18797,1.122513 0.18973,1.140206 0.0572,0.575732 -0.27466,1.638062 -0.1999,2.000282 0.0668,0.32341 0.23747,0.55136 0.31172,0.87514 0.1802,0.78584 0.2181,1.61768 0.18206,2.41487 -0.009,0.18973 -0.14377,0.26214 -0.22525,0.38615 -0.0887,0.13498 -0.0557,1.08937 -0.0491,1.30881 2.6e-4,0.0107 0.15025,1.17533 0.0332,1.16909 -0.0922,-0.005 -1.16431,-0.66853 -1.20802,-0.71619 -0.0747,-0.0814 -0.46903,-0.83643 -0.62199,-0.90089 -0.31392,-0.13229 -0.35384,0.51565 -0.72108,0.30363 -0.66384,-0.38325 -1.10236,-1.75338 -1.03548,-2.39336 0.0783,-0.7492 0.74185,-1.51919 0.68441,-2.29026 -0.0141,-0.18896 -0.36428,-0.9169 -0.44849,-1.16496 -0.13352,-0.39327 -0.40835,-0.80473 -0.49039,-1.202228 -0.0167,-0.08103 0.0576,-0.21355 0.0266,-0.271465 -0.11239,-0.209947 -0.30215,-0.233121 -0.48005,-0.337473 -0.11794,-0.06918 -0.39317,-0.757896 -0.44086,-0.851805 -0.14731,-0.290063 -0.33517,-1.051486 -0.6385,-1.229405 -0.31649,-0.185645 -0.64094,0.323691 -0.94484,-0.04864 -0.19012,-0.232939 -0.13436,-0.884616 -0.22078,-1.193988 -0.0742,-0.265437 -0.52233,-0.766392 -0.45268,-0.978148 0.0614,-0.186624 0.39968,0.131818 0.19495,-0.809136 -0.0514,-0.236016 -0.24729,-0.109794 -0.2908,-0.221377 -0.2092,-0.536522 -0.37497,-1.076319 -0.60718,-1.616257 -0.0941,-0.218848 -0.3313,-0.478814 -0.39281,-0.715648 -0.078,-0.300373 -0.1033,-0.614087 -0.1991,-0.909431 -0.11242,-0.346599 -0.37009,0.0909 -0.46699,-0.191354 -0.29888,-0.870554 -0.0831,-1.748118 -0.46399,-2.620881 -0.0916,-0.209939 -0.23437,-0.388294 -0.34919,-0.587171 -0.0222,-0.03842 -0.0522,-0.157202 -0.0665,-0.115245 -0.0271,0.07899 0.12794,0.892141 -0.0831,0.826492 -0.9554,-0.297246 -0.43057,-2.540486 -1.1094,-2.944833 -0.4636,-0.276141 0.6237,-1.041591 0.64174,-1.005631 0.10158,0.20238 -0.18747,0.414536 -0.24546,0.633426 -0.14745,0.556543 0.3794,0.229912 0.68657,0.412871 0.1111,0.06618 0.14806,0.262589 0.22449,0.300628 0.0614,0.03056 -0.0551,-0.125685 -0.0791,-0.189939 -0.14636,-0.392086 -0.1377,-0.549127 -0.34795,-0.884957 -0.0296,-0.04724 -1.1254,-1.427547 -1.34651,-1.414775 -0.33189,0.01918 -0.36895,0.519102 -0.73513,0.332232 -0.39062,-0.199343 -0.21523,-0.532725 -0.32183,-0.910283 -0.18619,-0.659495 -0.65099,-1.230374 -0.8578,-1.891559 -0.0587,-0.187558 0.0235,-0.472369 -0.14637,-0.571098 -0.26035,-0.15127 -0.68521,-0.04632 -0.85341,-0.296061 -0.8791,-2.49696 -0.27091,-1.47025 -1.62716,-3.188827"
         id="path17474" /><path
         style="fill:#cb9c2f;fill-opacity:1;stroke:#cb9c2f;stroke-width:0.264583;stroke-opacity:0.490196"
         d="m 248.68679,115.11472 c -0.39877,-0.65859 -0.25658,-2.19953 -1.01083,-2.63297 -0.2054,-0.11803 -0.63743,0.0458 -0.72305,-0.29962 -0.20246,-0.81678 -0.0414,-1.56078 -0.10074,-2.37987 -0.0103,-0.14265 -0.24336,-0.66571 -0.18086,-0.80728 0.0458,-0.10386 0.3611,0.0127 0.38494,-0.10956 0.0544,-0.27912 -0.37305,-0.63047 -0.51283,-0.80002 -0.20393,-0.24737 -0.47952,-0.64354 -0.78242,-0.80826 -0.44111,-0.23986 -0.92325,-0.40593 -1.17524,-0.88878 -0.18152,-0.3478 -0.0266,-0.63823 -0.16657,-0.95894 -0.12973,-0.29725 -0.40282,-0.59045 -0.44899,-0.91882 -0.0336,-0.23863 0.0968,-0.48305 0.0619,-0.72206 -0.0289,-0.19803 -0.34411,-0.79575 -0.2824,-0.91256 0.13329,-0.25227 1.02072,1.74985 1.15847,1.95359 0.38296,0.56642 0.81436,1.21083 1.31224,1.69065 0.25815,0.24879 0.66956,0.44307 0.8391,0.76529 0.16223,0.30831 0.22524,0.60495 0.46181,0.87044 0.41767,0.46873 1.05055,0.51611 1.31053,1.28189 0.0521,0.15331 0.0521,0.42874 0.084,0.58661 0.0914,0.45222 0.35701,0.88099 0.44184,1.31222 0.0622,0.31632 0.0803,0.6433 0.14685,0.96008 0.12984,0.61769 0.53579,1.16874 0.57564,1.80862 0.0504,0.80966 -0.47673,1.28813 -0.48455,2.19535 -0.004,0.47622 -0.0808,0.97427 -0.0404,1.44725 0.0192,0.22466 0.47688,0.80028 0.19837,0.96108 -0.20982,0.12114 -0.36243,-0.40991 -0.38493,-0.52557 -0.13311,-0.6844 -0.67293,-1.62522 -0.72694,-2.14126 -0.0322,-0.30785 0.0301,-0.61833 0.0451,-0.9275 z"
         id="path17476" /><path
         style="fill:#cb9c2f;fill-opacity:1;stroke:#cb9c2f;stroke-width:0.264583;stroke-opacity:0.490196"
         d="m 239.62327,104.79739 c -0.0891,-0.26611 -0.13676,-0.54993 -0.26737,-0.79832 -0.10653,-0.20259 -0.35354,-0.52319 -0.55176,-0.40875 -0.0726,0.0419 0.71635,0.21619 0.73364,0.0886 0.0504,-0.37151 -0.26085,-0.55766 -0.41548,-0.82549 -0.0618,-0.1071 0.17076,-0.43231 0.15946,-0.55304 -0.0145,-0.15545 -0.50004,-0.32516 -0.46304,-0.57265 0.0224,-0.15014 0.1911,-0.0435 0.26098,-0.13019 0.14318,-0.17774 -0.21409,-0.64588 0.20627,-0.11909 0.13635,0.17086 0.27322,0.39995 0.42682,0.56284 0.14221,0.15081 0.16571,-0.24657 0.39479,0.0486 0.12244,0.15779 0.89078,1.99925 0.83834,2.08719 -0.0957,0.16052 -0.27084,-0.40404 -0.22451,0.0169 0.0556,0.50506 0.21908,0.62797 -0.0752,1.01658 -0.0365,0.0482 0.0161,0.15533 -0.0404,0.17699 -0.35675,0.13678 -0.66666,-0.37535 -0.98254,-0.59028 z"
         id="path17478" /><path
         style="fill:#cb9c2f;fill-opacity:1;stroke:#cb9c2f;stroke-width:0.264583;stroke-opacity:0.490196"
         d="m 238.2342,100.22135 c -0.90498,-1.061217 0.0361,-1.307565 0.07,-0.972611 0.0328,0.323385 -0.0467,0.648407 -0.07,0.972611 z"
         id="path17480" /><path
         style="fill:#cb9c2f;fill-opacity:1;stroke:#cb9c2f;stroke-width:0.264583;stroke-opacity:0.490196"
         d="m 236.24983,102.60653 c -0.11945,-0.73888 -0.0845,-0.45153 -0.14981,-1.07106 -0.0266,-0.25246 -0.076,-0.34637 0.0628,-0.57921 0.0759,-0.1272 0.17623,-0.23918 0.27922,-0.3456 0.88206,-0.911391 0.71124,1.32177 0.6141,1.34593 -0.16227,0.0404 -0.19006,0.002 -0.29301,-0.0664"
         id="path17482" /><path
         style="fill:#cb9c2f;fill-opacity:1;stroke:#cb9c2f;stroke-width:0.264583;stroke-opacity:0.490196"
         d="m 237.32698,103.88999 c -0.1612,-0.22732 0.54301,-0.75741 0.6649,-0.50681 0.19945,0.41007 0.16267,0.8581 0.23015,1.28078 0.0245,0.15337 0.47111,0.43193 0.2856,0.58291 -0.10294,0.0838 -0.40655,0.10098 -0.53748,0.0747"
         id="path17484" /><path
         style="fill:#cb9c2f;fill-opacity:1;stroke:#cb9c2f;stroke-width:0.264583;stroke-opacity:0.490196"
         d="m 238.73902,106.22986 c 0.52086,0.11757 1.96425,-0.0315 1.83717,0.90612 -0.0474,0.34995 -0.031,0.39081 -0.26172,0.4994 -0.35208,0.16574 -0.24332,-0.47422 -0.43841,-0.49469 -0.32213,-0.0338 -1.11409,0.39038 -0.91157,-0.1498 0.0307,-0.0819 0.0544,-0.17541 0.12002,-0.23319 0.26637,-0.23461 0.57273,-0.41945 0.8591,-0.62917"
         id="path17486" /><path
         style="fill:#cb9c2f;fill-opacity:1;stroke:#cb9c2f;stroke-width:0.264583;stroke-opacity:0.490196"
         d="m 243.85091,116.00135 c 0.006,0.22855 -0.20958,0.69196 0.019,0.68564 0.22855,-0.006 0.0601,-0.47111 -0.019,-0.68564 -0.11366,-0.30844 -0.3901,-0.53287 -0.5382,-0.82633 -0.15004,-0.2973 -0.21909,-1.30765 -0.20082,-1.3182 0.13975,-0.0807 0.95972,0.36883 1.04637,0.47149 0.0311,0.0368 0.36806,0.51564 0.39848,0.42554 0.21134,-0.62603 0.29292,-0.53037 0.74402,-0.952 0.14733,-0.1377 0.11812,-0.41651 0.22057,-0.58832 0.0629,-0.10541 0.19466,-0.10057 0.28908,-0.18738 0.62038,-0.57042 0.81669,0.11215 0.86202,0.75206 0.0364,0.51344 -0.22202,0.22163 -0.44951,0.28001 -0.21809,0.056 0.0416,0.5064 -0.21293,0.58391 -0.32764,0.0998 -1.22881,-0.0858 -1.15704,0.48363 0.0207,0.16458 0.28832,0.92679 0.37481,1.12555 0.0272,0.0624 0.0462,0.14771 0.10966,0.17229 0.1574,0.061 0.30015,0.0205 0.43717,0.15735 0.12221,0.12203 0.0739,0.59033 0.25752,0.6401 0.17628,0.0478 0.76739,0.12189 0.9303,0.006 0.26851,-0.19132 0.19885,-0.61496 0.23142,-0.60482 0.16411,0.0511 0.50946,0.4929 0.64097,0.63383 0.38377,0.41124 0.45857,1.78169 -0.0533,2.13074 -0.46772,0.31897 -1.3793,-0.37963 -1.20826,-0.91069 0.0604,-0.1874 0.54631,0.56446 0.61213,0.74268 0.0981,0.26545 -0.28602,0.45545 -0.29697,0.63243 -0.0305,0.49255 1.18011,-0.0707 1.25413,-0.0685 0.67205,0.0206 0.15877,0.95696 0.19589,1.23909 0.049,0.3723 0.72174,1.21193 0.70552,1.41608 -0.0182,0.22867 -0.0534,0.52038 -0.0168,0.74724 0.0449,0.27755 0.30414,0.43133 0.39478,0.68377 0.0945,0.26325 -0.0703,0.35158 0.0788,0.63057 0.11869,0.222 0.29268,0.41046 0.37703,0.65305 0.0976,0.28065 -0.0977,0.0564 -0.16807,0.097 -0.004,0.002 0.0581,0.0933 0.0577,0.0999 -0.0152,0.24542 0.12541,1.32282 -0.4717,1.19429 -0.16355,-0.0352 -0.28818,-0.76378 -0.3689,-0.9036 -0.0414,-0.0717 -0.1656,-0.28682 -0.1242,-0.21512 0.15568,0.26966 0.14366,0.62122 0.26589,0.90161 0.13117,0.30091 0.35803,0.60245 0.44898,0.91882 0.0644,0.2239 0.13169,0.45029 0.1964,0.67538 0.0137,0.0476 0.0813,0.15511 0.0328,0.14498 -0.61038,-0.12744 -1.49493,-2.40944 -1.69715,-2.85134 -0.0536,-0.11706 0.0248,-0.2285 -0.0197,-0.31642 -0.10911,-0.21565 -0.2805,-0.35466 -0.37532,-0.56185 -0.17659,-0.38589 -0.1693,-1.19785 -0.59413,-1.47014 -0.17248,-0.11055 -0.77491,0.0154 -0.84355,-0.13785 -0.0891,-0.19895 -0.0157,-1.18265 -0.18627,-1.59293 -0.58014,-1.39577 -1.61546,-2.56199 -2.18902,-3.95028 -0.23881,-0.57804 0.1133,-0.12167 0.009,-1.18347 -0.0154,-0.15701 -0.41341,-1.40725 -0.49579,-1.67032"
         id="path17488" /><path
         style="fill:#cb9c2f;fill-opacity:1;stroke:#cb9c2f;stroke-width:0.264583;stroke-opacity:0.490196"
         d="m 248.88424,134.42304 c -0.10804,-1.10676 -1.05532,-2.01328 -1.0187,-3.14061 0.009,-0.27265 0.41634,-0.0856 0.3327,-0.37648 -0.16549,-0.57562 -0.69578,-1.05041 -0.77624,-1.66206 -0.11527,-0.87617 -0.46286,-2.30896 -1.22277,-2.8589 -0.60977,-0.44129 -0.19797,0.18175 -0.31396,0.23249 -0.12951,0.0567 -0.27868,-0.25333 -0.32998,-0.34217 -0.20581,-0.35648 -0.38527,-0.197 -0.57296,-0.30432 -0.25863,-0.14789 -0.64487,-0.51562 -0.77675,-0.7808 -0.14446,-0.29045 -0.0492,-0.5033 -0.0581,-0.80643 -0.003,-0.10435 -0.13007,-0.33061 -0.0273,-0.31201 0.47574,0.0861 0.8213,0.71872 0.98277,1.10234 0.0485,0.11528 0.11036,0.46397 0.1481,0.34474 0.0668,-0.21085 0.1867,-0.63554 0.12127,-0.84855 -0.0664,-0.21611 -0.36512,-0.90683 -0.5658,-1.01528 -0.16597,-0.0897 -0.55158,0.15585 -0.7159,-0.0579 -0.0321,-0.0417 0.003,-0.14713 -0.0123,-0.19776 -0.15961,-0.51957 0.17689,-0.54475 0.14344,-0.81013 -0.0385,-0.30559 -0.31101,-0.57807 -0.39502,-0.87827 -0.0875,-0.31287 0.003,-0.2238 -0.0485,-0.52515 -0.054,-0.31714 -0.23972,-0.65328 -0.33636,-0.9531 -0.0786,-0.24385 -0.066,-0.51457 -0.14218,-0.75791 -0.2322,-0.74146 -1.32883,-0.63233 -1.4345,-0.98496 -0.15812,-0.52771 0.5697,-0.71447 0.65334,-1.07378 0.0938,-0.40299 -0.43679,-0.82026 -0.61262,-1.13166 -0.11129,-0.19708 -0.11967,-0.76592 -0.26392,-0.93348 -0.25332,-0.29425 -0.62266,-0.66599 -1.05006,-0.53081 -0.20533,0.0649 -0.263,0.69821 -0.30658,0.66871 -0.57614,-0.39004 -0.75505,-1.14667 -1.23733,-1.63147 -0.5611,-0.56402 -1.22736,-0.0732 -1.15331,-1.04486 0.0253,-0.33174 0.38973,0.0548 0.4532,0.0969 0.24274,0.16106 0.67262,0.85113 0.90638,0.82889 0.1164,-0.0111 0.22685,-0.20772 0.35216,-0.25454 0.0758,-0.0283 0.27859,-0.0359 0.33097,-0.15011 0.13744,-0.29977 0.12404,-0.79083 -0.0392,-1.07348 -0.1763,-0.30535 -0.90506,0.0534 -1.29404,-0.31825 -0.24076,-0.23006 -0.24312,-0.60791 -0.42879,-0.84853 -0.1058,-0.13713 -0.73801,-0.48433 -0.75187,-0.50834 -0.017,-0.0294 0.0809,-0.18641 -2.4e-4,-0.1945 -0.16332,-0.0163 -0.6029,0.26614 -0.75362,0.35315 -0.59328,0.34253 0.0753,1.92028 0.27128,2.32239 0.31393,0.64409 -0.24737,-0.64797 -0.65799,-0.0811 -0.17889,0.24697 -0.77793,1.46006 -0.77484,1.72783 0.004,0.3228 0.77984,1.48564 0.98177,1.59463 0.10329,0.0557 0.23063,0.0475 0.34773,0.0553 0.30614,0.0206 0.55118,-0.32634 0.80808,-0.24117 0.52159,0.1729 -0.34099,0.74252 -0.33444,0.9204 0.0286,0.77708 0.44509,1.58242 0.88639,2.22335 0.18405,0.26732 0.45873,0.23161 0.70184,0.40405 0.11592,0.0822 0.37758,0.57824 0.50568,0.55828 0.22259,-0.0347 0.28709,-0.6978 0.63977,-0.6562 0.75395,0.0889 1.10773,0.58761 1.399,1.24106 0.0228,0.0512 0.4579,1.57356 0.0633,1.39759 -0.57526,-0.25654 -0.79727,-0.99889 -1.45371,-0.91239 -0.56391,0.0743 -0.5309,1.13557 -0.21148,1.4333 0.10212,0.0952 1.54306,0.0134 1.46063,0.32451 -0.0235,0.0888 -0.22616,0.0586 -0.28833,0.13574 -0.41946,0.52069 -0.11491,0.91953 0.11283,1.43045 0.0105,0.0236 0.0579,0.27393 0.10744,0.32724 0.39966,0.42972 0.8102,-1.22794 1.08237,-0.66589 0.20567,0.42472 0.58404,1.2328 0.56751,1.74161 -0.005,0.14122 -0.24098,0.13346 -0.0712,0.3177 0.22361,0.24271 0.41446,0.0746 0.66612,0.1481 1.07574,0.31426 1.59871,0.33178 1.96482,1.62121 0.0913,0.32169 0.0787,0.32338 0.12148,0.6162 0.0174,0.11945 0.0453,0.2377 0.054,0.35811 0.13981,1.94556 -0.75137,-0.51559 -1.33964,0.22028 -0.44917,0.56185 1.73037,1.22903 1.13875,1.63716 -0.15198,0.10484 -1.25987,-0.62327 -1.59986,-0.65387 -0.33764,-0.0304 -0.61697,0.44486 -0.39062,0.71723 0.13953,0.1679 0.39474,0.21821 0.5774,0.31199 1.30523,0.67017 1.9949,0.10412 2.91434,1.55446 0.12586,0.19854 0.48471,0.36836 0.34845,0.63882 -0.0545,0.10823 -0.39595,0.37411 -0.34823,0.50837 0.0592,0.16672 0.50627,0.87498 0.67916,0.92934 0.16074,0.0505 0.41824,0.0892 0.51012,0.2484 0.12183,0.21102 0.29125,0.35576 0.4453,0.54193 0.0493,0.0596 0.0899,0.24697 0.13825,0.18652 0.31548,-0.39463 0.13287,-1.00174 0.19127,-1.50359 z"
         id="path17490" /><path
         style="fill:#cb9c2f;fill-opacity:1;stroke:#cb9c2f;stroke-width:0.264583;stroke-opacity:0.490196"
         d="m 241.91114,129.6495 c 0.11682,-0.2211 0.28641,-0.42158 0.35045,-0.6633 5.3e-4,-0.002 -0.12457,-0.51583 -0.21636,-0.55118 -0.35536,-0.13687 -0.17103,0.30563 -0.32309,0.34019 -0.43502,0.0989 -0.0713,-0.85542 -1.03997,0.13946 -0.1213,0.12457 -0.1954,0.67395 -0.33074,0.66216 -0.29063,-0.0253 -0.46628,-0.25406 -0.70702,-0.36009 -0.0443,-0.0195 -0.67428,0.10672 -0.69742,0.23876 -0.1808,1.0315 1.51896,1.75704 2.37957,1.54565 0.41942,-0.10302 0.80298,-0.12915 0.67919,-0.65847 -0.0404,-0.17293 0.0598,-1.01162 -0.0946,-0.69318 -0.78533,1.61922 0.32836,0.46896 -0.57744,1.59338 -0.14766,0.18329 0.012,0.69974 0.15597,0.85238 0.0752,0.0797 0.16819,0.38444 0.1794,0.27544 0.026,-0.2525 -0.0982,-0.4001 -0.0101,-0.67026 0.13882,-0.42584 0.83451,-0.68192 1.26991,-0.64099 0.0951,0.009 0.52638,0.30456 0.63482,0.21738 0.33474,-0.26908 -0.63611,-1.09904 -0.7967,-1.29172"
         id="path17492" /><path
         style="fill:#cb9c2f;fill-opacity:1;stroke:#cb9c2f;stroke-width:0.264583;stroke-opacity:0.490196"
         d="m 244.37025,133.67945 c -0.2199,-0.16328 -0.4387,-0.32805 -0.6597,-0.48984 -0.43648,-0.31954 -0.56353,-1.19039 0.23734,-1.018 0.38774,0.0835 1.45313,0.58489 1.23833,1.13919 -0.0337,0.0869 -0.0285,0.23004 -0.11879,0.25297 -0.22832,0.058 -0.46478,0.0771 -0.69718,0.11568 z"
         id="path17494" /><path
         style="fill:#cb9c2f;fill-opacity:1;stroke:#cb9c2f;stroke-width:0.264583;stroke-opacity:0.490196"
         d="m 238.03455,124.08185 c 0.25122,-0.14073 -1.27458,-2.59084 -1.27009,-2.72914 0.002,-0.0734 0.23609,0.37961 0.43102,0.37603 0.24572,-0.005 0.41435,-0.0877 0.62866,0.1185 0.32459,0.31233 0.50819,0.51669 0.70972,0.9117 0.10974,0.2151 1.03968,2.44709 1.0505,2.82518 0.0127,0.44487 -2.02495,0.49823 -1.9185,-0.94112"
         id="path17496" /><path
         style="fill:#cb9c2f;fill-opacity:1;stroke:#cb9c2f;stroke-width:0.264583;stroke-opacity:0.490196"
         d="m 236.6701,120.2189 c -0.0739,-0.2339 -0.14785,-0.4678 -0.22178,-0.7017 0.1303,-0.38596 0.19505,-0.80067 0.39089,-1.15787 0.47942,-0.87443 1.27021,0.0534 1.15628,0.20315 -0.0957,0.12573 -1.07227,-0.89527 -1.24548,-1.06335 -0.25431,-0.24679 -0.94024,0.53523 -1.27483,0.24432 -0.50967,-0.44316 -0.45259,-1.41636 -0.70747,-2.01933 -0.0159,-0.0376 -0.39349,-0.0224 -0.52343,-0.58902 -0.06,-0.26172 -0.15807,-0.74619 0.11511,-0.94743 0.063,-0.0464 0.16192,0.0161 0.16388,0.0898 0.003,0.0964 -0.32982,0.23988 -0.35882,0.4018 -0.0674,0.37638 0.28921,1.18006 0.0192,1.51525 -0.0967,0.12008 -0.59872,0.25098 -0.57766,0.4462 0.01,0.091 1.16271,1.31244 1.14442,1.34705 -0.24943,0.47212 -1.29013,-0.96183 -1.1457,0.53855 0.009,0.0979 -0.0121,0.23546 0.0165,0.32852 0.35662,1.16095 1.18269,0.51304 1.7938,0.65457 0.25973,0.0602 0.21889,0.50534 0.44777,0.58148 0.25854,0.086 0.61269,0.31871 0.80732,0.12803 0.17522,-0.17167 -0.18928,-0.45856 -0.22178,-0.7017 -0.0695,-0.51981 -0.0547,-1.04745 -0.082,-1.57117"
         id="path17498" /><path
         style="fill:#cb9c2f;fill-opacity:1;stroke:#cb9c2f;stroke-width:0.264583;stroke-opacity:0.490196"
         d="m 232.20583,111.5691 c -0.55956,-0.6743 0.0731,-1.79676 -0.46178,-2.45826 -0.0934,-0.11558 -0.23162,-0.18904 -0.32751,-0.30261 -0.60866,-0.72096 -0.46253,-1.11267 -0.83809,-1.57514 -0.13365,-0.16457 -0.18958,-0.43626 -0.39134,-0.50137 -0.17023,-0.0549 -0.25133,-0.0317 -0.39577,-0.1915 -0.13592,-0.1504 -0.33576,-0.57568 -0.44505,-0.66499 -0.11263,-0.092 -0.22143,-0.1183 -0.2627,-0.27858 -0.22261,-0.86439 0.33296,-2.01371 -0.76465,-2.36534 -0.39765,-0.12739 -0.22588,0.94367 -0.23512,1.18062 -0.0541,1.38539 0.98774,2.23113 1.23433,3.42587 0.0389,0.18858 -0.22421,-0.009 -0.24176,0.0576 -0.0536,0.20216 -0.0133,0.76657 -0.0165,0.94173 -0.009,0.48325 1.24402,2.36881 1.60549,2.58671 0.44409,0.26771 0.59452,0.15886 0.98081,0.49909 0.0948,0.0835 0.1916,0.35815 0.27354,0.26207 0.1469,-0.17225 0.1696,-0.81001 0.28613,-0.61593 0.18143,0.30216 -0.0361,0.70499 -0.0212,1.05713 0.006,0.13295 0.13307,0.23048 0.19961,0.34573 0.0272,0.0471 0.21882,0.48829 0.32726,0.42568 0.2815,-0.16252 0.0308,-0.65587 -0.033,-0.9746 -0.11104,-0.55446 -0.24177,-1.10482 -0.35656,-1.65852 -0.39743,-1.91693 -0.12185,-0.79484 -0.44921,-2.066"
         id="path17500" /><path
         style="fill:#cb9c2f;fill-opacity:1;stroke:#cb9c2f;stroke-width:0.264583;stroke-opacity:0.490196"
         d="m 226.36108,88.442751 c -0.005,-0.379455 0.0259,-0.76114 -0.0155,-1.138362 -0.0566,-0.515395 -1.01907,-0.872778 -1.12472,-1.030631 -0.17199,-0.256992 -0.11676,-0.717907 -0.2129,-1.003906 -0.10327,-0.307192 -0.34359,-0.648057 -0.48201,-0.940726 -0.20394,-0.431199 -0.39117,-0.943046 -0.36372,-0.94756 0.19738,-0.03245 0.41365,0.324995 0.49065,0.444037 0.26668,0.412319 0.57928,0.80055 0.83564,1.218017 0.17946,0.292238 0.35427,0.727792 0.58552,1.014143 0.38765,0.480028 0.69805,0.763775 0.97586,1.372669 0.0288,0.06321 0.37454,0.757862 0.30039,0.820224 -0.0453,0.0381 -0.25678,0.02674 -0.28686,0.03245 -0.23588,0.04476 -0.46823,0.106434 -0.70235,0.159649 z"
         id="path17502" /><path
         style="fill:#cb9c2f;fill-opacity:1;stroke:#cb9c2f;stroke-width:0.264583;stroke-opacity:0.490196"
         d="m 228.81423,83.799615 c -0.16486,-0.232619 -0.37055,-0.441137 -0.49459,-0.697859 -0.28201,-0.583695 0.36518,-0.57952 0.42733,-0.318426 0.51115,2.147342 -0.72038,-0.128434 1.01725,1.973648 0.26715,0.323178 -0.50699,0.175152 -0.60919,0.0034 -0.17379,-0.29201 -0.2272,-0.640527 -0.3408,-0.960792 z"
         id="path17504" /><path
         style="fill:#cb9c2f;fill-opacity:1;stroke:#cb9c2f;stroke-width:0.264583;stroke-opacity:0.490196"
         d="m 245.53671,31.499767 c -0.22285,-0.274256 -0.42153,-0.570076 -0.66856,-0.822775 -0.45409,-0.464497 -1.49417,-0.784825 -0.69715,-1.472128 0.20271,-0.1748 0.46889,0.495729 0.49853,0.634119 0.2624,1.224947 0.27947,0.72303 0.86718,1.660784 0.19054,0.30402 0.30906,0.647645 0.46797,0.969328 0.0589,0.119306 0.16553,0.474363 0.1996,0.345728 0.0175,-0.06624 -0.0146,-0.202636 -0.0173,-0.27687"
         id="path17506" /><path
         style="fill:#cb9c2f;fill-opacity:1;stroke:#cb9c2f;stroke-width:0.264583;stroke-opacity:0.490196"
         d="m 227.09851,84.462381 c 0.51655,-0.277908 0.61668,-0.129376 0.4993,-0.687779 -0.12654,-0.602012 -0.81075,-0.987333 -0.78265,-1.63788 0.002,-0.05277 0.23996,-1.318437 -0.10767,-1.156856 -1.09028,0.506765 -1.48147,1.514144 -1.20514,2.570411 0.0675,0.258062 -0.0138,0.456068 0.11556,0.711812 0.10452,0.206568 0.33438,0.349803 0.43643,0.526557 0.18449,0.319548 -0.14528,0.453742 -0.008,0.762609 0.31839,0.715801 0.87383,1.073542 1.43399,1.548656 0.35607,0.302014 0.4499,1.18967 1.01431,1.227548 0.29519,0.01982 0.48633,-0.117046 0.71468,-0.279448 1.02596,-0.729644 0.69099,-1.032372 0.315,-2.312585 -0.0883,-0.30068 0.35986,-0.389668 -0.0887,-0.788784 -0.0752,-0.06692 -0.90167,-0.471114 -0.89431,-0.508053 0.0351,-0.176043 0.33302,-0.504047 0.11584,-0.681511 -0.12615,-0.103076 -1.14317,-0.334629 -1.27038,-0.383124"
         id="path17508" /><path
         style="fill:#cb9c2f;fill-opacity:1;stroke:#cb9c2f;stroke-width:0.264583;stroke-opacity:0.490196"
         d="m 235.54932,108.45045 c 0.86996,0.25619 1.31105,0.59056 1.68043,1.37564 0.0507,0.10786 0.0956,0.44029 0.13923,0.32937 0.13495,-0.34303 0.12444,-0.75708 0.22355,-1.11247 0.35779,-1.28298 0.34666,-0.48544 -0.4953,-1.91646 -0.0411,-0.0699 -0.21811,-0.63641 -0.47266,-0.53638 -0.0503,0.0198 -0.61253,0.51126 -0.86057,0.4149 -0.32522,-0.12634 -0.32501,-0.76224 -0.33046,-0.73116 -0.0752,0.42912 0.19427,0.70865 0.20822,1.1193 0.012,0.35356 -0.0616,0.70484 -0.0924,1.05726 z"
         id="path17510" /><path
         style="fill:#cb9c2f;fill-opacity:1;stroke:#cb9c2f;stroke-width:0.264583;stroke-opacity:0.490196"
         d="m 234.89951,106.531 c -0.16405,-0.61481 -0.0855,-0.636 -0.37629,-1.02225 -0.0715,-0.095 -0.68356,-0.72991 -0.55274,-0.86917 0.0451,-0.048 2.00804,0.15357 2.11961,0.23088 0.20604,0.14275 0.38538,0.37187 0.51898,0.58133 0.0902,0.14144 0.36292,0.44997 0.19714,0.62374 -0.32248,0.33801 -0.9601,-0.0739 -1.32338,0.0367 -0.21831,0.0665 -0.53329,0.3812 -0.58332,0.41874 z"
         id="path17512" /><path
         style="fill:#cb9c2f;fill-opacity:1;stroke:#cb9c2f;stroke-width:0.264583;stroke-opacity:0.490196"
         d="m 231.9736,104.092 c 0.0955,-0.55207 -0.32827,-1.59701 -0.003,-2.13942 0.0786,-0.13086 0.33599,0.0316 0.43274,0.14966 0.0928,0.11324 1.15872,2.07672 1.23708,1.75454 0.007,-0.0267 -0.0303,-0.64582 -0.0547,-0.62402 -0.338,0.30255 0.03,1.35813 -0.73933,1.15417 -0.29694,-0.0787 -0.58209,-0.19662 -0.87313,-0.29493 z"
         id="path17514" /><path
         style="fill:#cb9c2f;fill-opacity:1;stroke:#cb9c2f;stroke-width:0.264583;stroke-opacity:0.490196"
         d="m 231.12541,102.16416 c -0.28719,-0.12102 -0.55461,-0.30914 -0.86154,-0.36307 -0.42962,-0.0755 -0.52375,0.0774 -0.82385,0.17858 -0.10481,0.0353 -0.37539,0.12823 -0.33072,0.027 0.12188,-0.27611 0.71164,-0.24312 0.84948,-0.59289 0.12478,-0.3166 0.13823,-0.63851 0.22181,-0.56855 0.36513,0.30567 0.75838,1.03176 0.94482,1.31889 z"
         id="path17516" /><path
         style="fill:#cb9c2f;fill-opacity:1;stroke:#cb9c2f;stroke-width:0.264583;stroke-opacity:0.490196"
         d="m 229.16847,100.73304 c -0.46652,-0.60672 -0.84005,-1.503875 -0.79151,-2.288372 0.0171,-0.276498 0.24424,0.01058 0.23512,-0.545497 -0.004,-0.239681 -0.0797,-0.845201 -0.0498,-0.862486 0.0495,-0.02856 0.60468,1.253704 0.79029,1.315905 0.082,0.02747 0.19251,-0.245284 0.29869,-0.223665 0.31952,0.06505 0.41037,0.435911 0.48695,0.70227 0.066,0.229518 -0.0107,0.424048 0.0286,0.649354 0.0538,0.308697 0.11518,-0.210863 0.20503,0.178697 0.11341,0.491704 -0.31565,0.418994 -0.59516,0.609954 -0.21052,0.14383 -0.40548,0.30923 -0.60822,0.46384 z"
         id="path17518" /><path
         style="fill:#cb9c2f;fill-opacity:1;stroke:#cb9c2f;stroke-width:0.264583;stroke-opacity:0.490196"
         d="m 228.37058,97.516166 c -0.16031,-0.661207 -0.4541,-1.245315 -0.81345,-1.814732 -0.17131,-0.271444 -0.42101,-0.383395 -0.60154,-0.636109 -0.45526,-0.637281 -0.78266,-1.370002 -1.27479,-1.978623 -0.075,-0.09281 -0.60573,-0.876366 -0.34597,-0.916829 0.13049,-0.02032 0.40155,0.16034 0.51973,0.212125 0.74476,0.326352 0.81816,0.40773 1.24622,1.011705 0.16254,0.229349 0.38819,-0.182657 0.66932,0.136004 0.28826,0.326745 0.34663,0.739426 0.50961,1.12967 0.58624,1.403718 0.57039,1.41872 0.0909,2.856789 z"
         id="path17520" /><path
         style="fill:#cb9c2f;fill-opacity:1;stroke:#cb9c2f;stroke-width:0.264583;stroke-opacity:0.490196"
         d="m 224.87524,91.462055 c -0.42869,-0.43886 -0.84342,-0.903309 -1.18435,-1.416204 -0.37449,-0.563385 -0.71587,-1.127749 -0.87901,-1.787128 -0.0165,-0.06654 -0.35017,-1.126143 -0.23335,-1.268682 0.0297,-0.03617 0.18262,0.438732 0.39626,0.580482 0.78825,0.522994 0.89199,0.391679 1.51089,1.258411 0.34576,0.48423 0.53666,1.042438 0.86299,1.530033 0.43705,0.653042 1.63677,1.214609 1.37335,2.290493 -0.0472,0.192616 -0.1685,0.33129 -0.21664,0.524581 -0.0856,0.343903 0.12823,0.620482 -0.28884,0.699442"
         id="path17522" /></g></g></svg>
