<?xml version="1.0" encoding="UTF-8" standalone="no"?>
<!-- Created with Inkscape (http://www.inkscape.org/) -->

<svg
   width="41.989891mm"
   height="37.350956mm"
   viewBox="0 0 41.989891 37.350956"
   version="1.1"
   id="svg5"
   xml:space="preserve"
   sodipodi:docname="drawing.svg"
   inkscape:version="1.2.2 (732a01da63, 2022-12-09)"
   xmlns:inkscape="http://www.inkscape.org/namespaces/inkscape"
   xmlns:sodipodi="http://sodipodi.sourceforge.net/DTD/sodipodi-0.dtd"
   xmlns="http://www.w3.org/2000/svg"
   xmlns:svg="http://www.w3.org/2000/svg"><sodipodi:namedview
     id="namedview7"
     pagecolor="#ffffff"
     bordercolor="#000000"
     borderopacity="0.25"
     inkscape:showpageshadow="2"
     inkscape:pageopacity="0.0"
     inkscape:pagecheckerboard="0"
     inkscape:deskcolor="#d1d1d1"
     inkscape:document-units="mm"
     showgrid="false"
     inkscape:zoom="0.69014043"
     inkscape:cx="604.94934"
     inkscape:cy="357.17368"
     inkscape:window-width="1920"
     inkscape:window-height="1051"
     inkscape:window-x="-9"
     inkscape:window-y="-9"
     inkscape:window-maximized="1"
     inkscape:current-layer="layer2" /><defs
     id="defs2" /><g
     inkscape:groupmode="layer"
     id="layer3"
     inkscape:label="Layer 3"
     transform="translate(-56.995215,-42.345616)"><path
       style="fill:#242021;fill-opacity:1;stroke:#cb9c2f;stroke-width:0.264583;stroke-opacity:0.490196"
       d="m 60.249268,71.363868 c 3.545577,-7.111817 6.15824,-10.80295 9.216987,-16.129725 l 2.236473,-1.762069 12.13118,-0.06777 c 1.555613,1.025157 3.398375,1.954597 3.930774,3.320825 l 8.064863,14.706515 c 0.167851,2.326838 0.698834,4.653675 -0.67772,6.980513 -1.021574,0.393009 -1.109733,0.919363 -3.253052,1.152123 H 63.502322 c -2.785418,-0.367265 -3.220397,-2.077638 -3.524141,-3.863002 0.03547,-1.528147 -0.09474,-3.3048 0.271087,-4.33741 z"
       id="path20097"
       sodipodi:nodetypes="ccccccccccc" /><path
       style="fill:#242021;fill-opacity:1;stroke:#cb9c2f;stroke-width:0.264583;stroke-opacity:0.490196"
       d="m 64.044498,57.131759 c -4.480681,0.871757 -6.405279,-0.4754 -6.573879,-0.677719 l -0.338858,-4.947354 c 10.987876,-9.328389 22.323736,-14.108152 41.137578,-0.881034 0.453206,1.829842 1.014408,3.659685 0.06777,5.489527 -0.461505,1.054649 -1.770467,1.092349 -3.117509,1.084353 l -2.914195,-0.203316 -1.490982,-0.406633 -2.236475,-5.015124 c -1.714802,-3.399516 -19.759367,-4.090236 -21.009307,0.609948 -1.129603,1.761896 -2.068012,4.001777 -3.524143,4.947352 z"
       id="path20095"
       sodipodi:nodetypes="ccccccccccc" /><ellipse
       style="fill:#ffffff;fill-opacity:1;stroke:#cb9c2f;stroke-width:0.264583;stroke-opacity:0.490196"
       id="path22332"
       cx="78.141068"
       cy="66.585953"
       rx="6.0317039"
       ry="6.0655899" /></g></svg>
